<svg width="237" height="241" viewBox="0 0 237 241" fill="none" xmlns="http://www.w3.org/2000/svg">
<g id="dropdown-menu/bro">
<g id="Plants">
<path id="Vector" d="M38.3606 223.466C38.3965 223.702 38.5054 223.922 38.6721 224.093C38.8389 224.265 39.0552 224.38 39.2906 224.423C39.5261 224.465 39.7689 224.433 39.9852 224.331C40.2014 224.228 40.3802 224.061 40.4966 223.852C42.926 219.504 48.9589 211.318 62.1931 205.329C74.6937 199.682 64.1932 185.605 54.4863 190.29C44.0185 195.34 36.241 209.21 38.3606 223.466Z" fill="#92E3A9"/>
<path id="Vector_2" opacity="0.2" d="M39.9531 221.987C40.6175 220.099 41.6378 218.356 42.9586 216.851C46.2196 213.009 50.9698 208.78 46.4207 211.085C49.4989 208.783 52.8283 206.837 56.345 205.286C61.5355 203.112 51.6275 203.362 51.6275 203.362C51.6275 203.362 63.1986 196.389 61.4105 194.247C59.9321 192.492 52.9699 198.014 52.9699 198.014C52.9699 198.014 54.2254 193.171 52.9699 193.035C51.7144 192.899 47.4805 202.742 47.4805 202.742C47.4805 202.742 47.9806 199.655 46.4316 199.987C44.8826 200.318 38.1812 214.993 39.9531 221.987Z" fill="#263238"/>
<path id="Vector_3" d="M31.2024 223.129C31.1959 223.341 31.1224 223.547 30.9923 223.715C30.8622 223.884 30.6822 224.007 30.478 224.067C30.2737 224.128 30.0556 224.122 29.8549 224.051C29.6541 223.98 29.4809 223.847 29.3599 223.672C26.8163 220.052 20.7563 213.411 8.55471 209.329C-2.9512 205.481 4.9676 192.154 13.9462 195.405C23.6206 198.888 31.7513 210.394 31.2024 223.129Z" fill="#92E3A9"/>
<path id="Vector_4" opacity="0.2" d="M29.4738 221.123C28.708 219.584 27.6546 218.206 26.3704 217.063C23.1637 214.134 18.6907 211.031 22.805 212.52C19.9391 210.886 16.898 209.58 13.7394 208.628C9.09247 207.34 17.5439 206.503 17.5439 206.503C17.5439 206.503 6.95108 201.78 8.25005 199.764C9.33705 198.133 15.8591 202.095 15.8591 202.095C15.8591 202.095 14.272 198.101 15.3156 197.856C16.3591 197.612 21.0278 205.53 21.0278 205.53C21.0278 205.53 20.2668 202.954 21.6202 203.079C22.9735 203.204 30.2347 214.982 29.4738 221.123Z" fill="black"/>
<path id="Vector_5" d="M14.4131 203.378C14.4131 203.378 27.4897 209.9 32.2508 229.542" stroke="#263238" stroke-width="0.75" stroke-linecap="round" stroke-linejoin="round"/>
<path id="Vector_6" d="M35.9742 223.879C35.8356 224.139 35.6196 224.349 35.3562 224.48C35.0927 224.612 34.795 224.658 34.5041 224.613C34.2132 224.567 33.9437 224.432 33.7328 224.227C33.522 224.021 33.3803 223.756 33.3274 223.466C32.3056 217.395 28.6587 205.438 15.7125 193.111C3.50004 181.491 21.5714 169.301 30.9305 178.681C41.0559 188.791 44.3659 208.107 35.9742 223.879Z" fill="#92E3A9"/>
<path id="Vector_7" opacity="0.2" d="M34.6482 221.449C34.5629 218.944 33.9945 216.478 32.9742 214.188C30.4741 208.378 26.3978 201.584 30.985 206.009C28.1545 202.128 24.8905 198.583 21.2563 195.443C15.8213 190.97 27.637 194.856 27.637 194.856C27.637 194.856 16.3702 182.274 19.3377 180.361C21.7726 178.79 28.0338 187.97 28.0338 187.97C28.0338 187.97 28.349 181.698 29.9034 181.991C31.4578 182.285 32.8492 195.622 32.8492 195.622C32.8492 195.622 33.3927 191.736 35.1373 192.698C36.8819 193.66 39.4092 213.699 34.6482 221.449Z" fill="#263238"/>
<path id="Vector_8" d="M26.708 189.051C26.708 189.051 39.2683 205.003 33.4257 232.596" stroke="#263238" stroke-width="0.75" stroke-linecap="round" stroke-linejoin="round"/>
<path id="Vector_9" d="M54.9046 199.307C54.9046 199.307 40.9584 208.188 37.9365 230.797" stroke="#263238" stroke-width="0.75" stroke-linecap="round" stroke-linejoin="round"/>
<path id="Vector_10" d="M43.5999 240.07H26.2079C25.2749 240.077 24.3718 239.741 23.6703 239.125C22.9689 238.51 22.518 237.658 22.4034 236.732L21.4794 228.77C21.4611 228.594 21.4801 228.416 21.5352 228.247C21.5903 228.079 21.6803 227.924 21.7992 227.793C21.9182 227.662 22.0635 227.557 22.2257 227.486C22.3878 227.414 22.5632 227.378 22.7403 227.379H47.024C47.2011 227.378 47.3765 227.414 47.5386 227.486C47.7008 227.557 47.8461 227.662 47.9651 227.793C48.084 227.924 48.174 228.079 48.2291 228.247C48.2842 228.416 48.3032 228.594 48.2849 228.77L47.3609 236.732C47.2472 237.651 46.8026 238.497 46.1103 239.111C45.418 239.725 44.5255 240.066 43.5999 240.07Z" fill="white" stroke="#263238" stroke-miterlimit="10"/>
<path id="Vector_11" d="M25.816 231.156H23.1963" stroke="#263238" stroke-linecap="round" stroke-linejoin="round"/>
<path id="Vector_12" d="M46.7522 231.156H28.6699" stroke="#263238" stroke-linecap="round" stroke-linejoin="round"/>
<path id="Vector_13" d="M197.677 211.569C197.726 211.655 197.269 212.085 198.764 212.15C202.465 212.313 209.019 212.085 211.492 208.721C215.02 203.921 206.916 204.34 207.688 201.688C208.46 199.035 217.183 201.231 218.895 197.448C220.607 193.666 214.27 194.388 214.547 192.443C214.824 190.497 221.482 193.035 223.683 189.024C225.884 185.013 220.074 187.149 221.02 185.486C221.966 183.823 229.352 176.92 226.373 175.366C223.395 173.812 216.509 181.024 214.215 181.79C211.922 182.556 211.427 175.464 208.416 177.828C205.405 180.192 207.329 190.91 203.845 192.225C201.237 193.209 202.671 189.377 199.454 189.508C195.084 189.703 193.6 204.71 197.677 211.569Z" fill="#92E3A9"/>
<g id="Group" opacity="0.1">
<path id="Vector_14" d="M197.677 211.569C197.726 211.655 197.269 212.085 198.764 212.15C202.465 212.313 209.019 212.085 211.492 208.721C215.02 203.921 206.916 204.34 207.688 201.688C208.46 199.035 217.183 201.231 218.895 197.448C220.607 193.666 214.27 194.388 214.547 192.443C214.824 190.497 221.482 193.035 223.683 189.024C225.884 185.013 220.074 187.149 221.02 185.486C221.966 183.823 229.352 176.92 226.373 175.366C223.395 173.812 216.509 181.024 214.215 181.79C211.922 182.556 211.427 175.464 208.416 177.828C205.405 180.192 207.329 190.91 203.845 192.225C201.237 193.209 202.671 189.377 199.454 189.508C195.084 189.703 193.6 204.71 197.677 211.569Z" fill="black"/>
</g>
<path id="Vector_15" d="M212.395 189.524C212.395 189.524 198.03 199.372 194.872 224.433" stroke="#263238" stroke-width="0.75" stroke-linecap="round" stroke-linejoin="round"/>
<path id="Vector_16" d="M214.59 192.617C211.117 191.872 208.992 192.557 208.992 192.557" stroke="#263238" stroke-width="0.75" stroke-linecap="round" stroke-linejoin="round"/>
<path id="Vector_17" d="M210.656 182.263C210.656 182.263 206.308 188.04 206.308 195.573" stroke="#263238" stroke-width="0.75" stroke-linecap="round" stroke-linejoin="round"/>
<path id="Vector_18" d="M202.046 201.932C202.046 201.932 205.16 199.008 209.285 200.503" stroke="#263238" stroke-width="0.75" stroke-linecap="round" stroke-linejoin="round"/>
<path id="Vector_19" d="M199.801 206.373C198.762 203.421 198.509 200.25 199.068 197.171" stroke="#263238" stroke-width="0.75" stroke-linecap="round" stroke-linejoin="round"/>
<path id="Vector_20" d="M193.285 215.422C190.236 215.482 185.029 212.65 182.985 209.895C180.942 207.139 186.747 208.808 186.149 206.634C185.551 204.46 178.355 206.063 177.029 202.921C175.703 199.78 180.893 200.503 180.686 198.894C180.48 197.285 175.105 197.611 173.376 194.274C171.648 190.937 176.382 192.807 175.637 191.421C174.893 190.035 168.969 184.209 171.447 182.991C173.925 181.774 179.485 187.85 181.35 188.524C183.214 189.198 183.643 185.008 186.067 187.013C188.491 189.019 186.676 197.785 189.529 198.943C191.649 199.802 190.747 195.791 193.192 196.802C197.486 198.579 194.524 215.4 193.285 215.422Z" fill="#92E3A9"/>
<g id="Group_2" opacity="0.3">
<path id="Vector_21" d="M193.285 215.422C190.236 215.482 185.029 212.65 182.985 209.895C180.942 207.139 186.747 208.808 186.149 206.634C185.551 204.46 178.355 206.063 177.029 202.921C175.703 199.78 180.893 200.503 180.686 198.894C180.48 197.285 175.105 197.611 173.376 194.274C171.648 190.937 176.382 192.807 175.637 191.421C174.893 190.035 168.969 184.209 171.447 182.991C173.925 181.774 179.485 187.85 181.35 188.524C183.214 189.198 183.643 185.008 186.067 187.013C188.491 189.019 186.676 197.785 189.529 198.943C191.649 199.802 190.747 195.791 193.192 196.802C197.486 198.579 194.524 215.4 193.285 215.422Z" fill="white"/>
</g>
<path id="Vector_22" d="M178.572 189.524C178.572 189.524 193.79 204.432 194.649 226.716" stroke="#263238" stroke-width="0.75" stroke-linecap="round" stroke-linejoin="round"/>
<path id="Vector_23" d="M178.203 196.443C180.393 196.427 182.562 196.86 184.578 197.714" stroke="#263238" stroke-width="0.75" stroke-linecap="round" stroke-linejoin="round"/>
<path id="Vector_24" d="M183.898 188.551C183.898 188.551 187.317 193.921 186.703 200.552" stroke="#263238" stroke-width="0.75" stroke-linecap="round" stroke-linejoin="round"/>
<path id="Vector_25" d="M188.894 204.307C188.064 203.542 187.055 202.998 185.96 202.725C184.865 202.451 183.719 202.457 182.627 202.742" stroke="#263238" stroke-width="0.75" stroke-linecap="round" stroke-linejoin="round"/>
<path id="Vector_26" d="M191.66 210.492C192.801 207.968 193.266 205.19 193.008 202.432" stroke="#263238" stroke-width="0.75" stroke-linecap="round" stroke-linejoin="round"/>
<path id="Vector_27" d="M180.095 226.362C180.095 234.096 186.807 240.352 195.084 240.352C203.362 240.352 210.096 234.091 210.096 226.362C210.096 222.014 205.324 218.112 201.166 215.547H189.046C184.888 218.112 180.095 222.009 180.095 226.362Z" fill="white" stroke="#263238" stroke-miterlimit="10"/>
<path id="Vector_28" d="M186.084 226.944H183.464" stroke="#263238" stroke-linecap="round" stroke-linejoin="round"/>
<path id="Vector_29" d="M207.02 226.944H188.938" stroke="#263238" stroke-linecap="round" stroke-linejoin="round"/>
</g>
<g id="Icons">
<path id="Vector_30" d="M174.376 31.5661V25.8376" stroke="#263238" stroke-linecap="round" stroke-linejoin="round"/>
<path id="Vector_31" d="M176.491 29.8433L174.388 31.9466L172.284 29.8433" stroke="#263238" stroke-linecap="round" stroke-linejoin="round"/>
<path id="Vector_32" d="M176.996 24.539H171.806" stroke="#263238" stroke-linecap="round" stroke-linejoin="round"/>
<path id="Vector_33" d="M172.708 20.9842C173.234 20.8664 173.772 20.8062 174.311 20.8048C175.955 20.8089 177.548 21.3711 178.831 22.3992C180.114 23.4273 181.009 24.8604 181.371 26.4638C181.732 28.0672 181.539 29.746 180.822 31.2251C180.105 32.7043 178.907 33.8962 177.424 34.6056C175.942 35.3151 174.262 35.5 172.66 35.1302C171.059 34.7604 169.63 33.8577 168.609 32.57C167.587 31.2823 167.033 29.6859 167.037 28.0422C167.041 26.3984 167.603 24.8048 168.632 23.5223" stroke="#263238" stroke-linecap="round" stroke-linejoin="round"/>
<path id="Vector_34" d="M170.311 22.0224C170.616 21.8191 170.936 21.6375 171.267 21.4789" stroke="#263238" stroke-linecap="round" stroke-linejoin="round"/>
<path id="Vector_35" d="M53.2953 24.7614H64.4968V30.4899H47.4092V24.7614H48.7299" stroke="#263238" stroke-linecap="round" stroke-linejoin="round"/>
<path id="Vector_36" d="M50.3115 24.7614H51.904" stroke="#263238" stroke-linecap="round" stroke-linejoin="round"/>
<path id="Vector_37" d="M59.246 35.5773L55.9524 38.8709L52.6533 35.5773H54.1969V32.2565H57.7024V35.5773H59.246Z" stroke="#263238" stroke-linecap="round" stroke-linejoin="round"/>
<path id="Vector_38" d="M144.397 192.551H155.979L147.663 202.084L139.348 192.551H141.788" stroke="#263238" stroke-linecap="round" stroke-linejoin="round"/>
<path id="Vector_39" d="M147.663 185.046H152.995L147.663 191.16L142.331 185.046H144.945" stroke="#263238" stroke-linecap="round" stroke-linejoin="round"/>
</g>
<g id="Screen">
<path id="Vector_40" d="M227.526 43.9744H2.42383V171.045H227.526V43.9744Z" fill="#BFBFBF" stroke="#263238" stroke-linecap="round" stroke-linejoin="round"/>
<path id="Vector_41" d="M225.167 46.4586H4.7832V168.621H225.167V46.4586Z" fill="#92E3A9"/>
<g id="Clip path group">
<mask id="mask0_1_10144" style="mask-type:luminance" maskUnits="userSpaceOnUse" x="4" y="46" width="222" height="123">
<g id="clip-path">
<path id="Vector_42" d="M225.167 46.4586H4.7832V168.621H225.167V46.4586Z" fill="white"/>
</g>
</mask>
<g mask="url(#mask0_1_10144)">
<g id="Group_3">
<path id="Vector_43" opacity="0.9" d="M225.167 46.4586H4.7832V168.621H225.167V46.4586Z" fill="white" stroke="#263238" stroke-miterlimit="10"/>
</g>
</g>
</g>
<path id="Vector_44" d="M225.167 46.4586H4.7832V168.621H225.167V46.4586Z" stroke="#263238" stroke-miterlimit="10"/>
<path id="Vector_45" d="M225.167 46.377H4.7832V58.921H225.167V46.377Z" fill="#92E3A9" stroke="#263238" stroke-linecap="round" stroke-linejoin="round"/>
<path id="Vector_46" opacity="0.2" d="M179.964 48.8227H153.012V56.4643H179.964V48.8227Z" fill="black"/>
<path id="Vector_47" d="M174.328 50.3768H157.545V55.127H174.328V50.3768Z" fill="white" stroke="#263238" stroke-linecap="round" stroke-linejoin="round"/>
<path id="Vector_48" d="M53.1873 50.3768H19.5283V55.127H53.1873V50.3768Z" fill="white" stroke="#263238" stroke-linecap="round" stroke-linejoin="round"/>
<path id="Vector_49" d="M148.512 50.3768H131.729V55.127H148.512V50.3768Z" fill="white" stroke="#263238" stroke-linecap="round" stroke-linejoin="round"/>
<path id="Vector_50" d="M200.144 50.3768H183.36V55.127H200.144V50.3768Z" fill="white" stroke="#263238" stroke-linecap="round" stroke-linejoin="round"/>
<path id="Vector_51" d="M36.7787 100.091C45.7627 100.091 53.0457 92.9149 53.0457 84.063C53.0457 75.211 45.7627 68.0351 36.7787 68.0351C27.7947 68.0351 20.5117 75.211 20.5117 84.063C20.5117 92.9149 27.7947 100.091 36.7787 100.091Z" fill="#92E3A9" stroke="#263238" stroke-linecap="round" stroke-linejoin="round"/>
<path id="Vector_52" d="M21.0117 106.238H52.888" stroke="#263238" stroke-width="2" stroke-linecap="round" stroke-linejoin="round"/>
<path id="Vector_53" d="M35.5177 114.168H27.4141V118.668H35.5177V114.168Z" fill="#263238" stroke="#263238" stroke-linecap="round" stroke-linejoin="round"/>
<path id="Vector_54" d="M43.6158 122.896H27.4141V127.397H43.6158V122.896Z" fill="#263238" stroke="#263238" stroke-linecap="round" stroke-linejoin="round"/>
<path id="Vector_55" d="M39.632 131.625H27.4141V136.125H39.632V131.625Z" fill="#263238" stroke="#263238" stroke-linecap="round" stroke-linejoin="round"/>
<path id="Vector_56" d="M45.3931 140.354H27.4141V144.854H45.3931V140.354Z" fill="#263238" stroke="#263238" stroke-linecap="round" stroke-linejoin="round"/>
<path id="Vector_57" d="M216.769 66.144H61.4043V161.126H216.769V66.144Z" fill="white" stroke="#263238" stroke-linecap="round" stroke-linejoin="round"/>
</g>
<g id="dropdown-menu">
<path id="Vector_58" d="M208.383 90.6012H180.322V138.571H208.383V90.6012Z" fill="#BFBFBF" stroke="#263238" stroke-linecap="round" stroke-linejoin="round"/>
<path id="Vector_59" d="M185.85 97.33H202.861" stroke="#263238" stroke-width="2" stroke-linecap="round" stroke-linejoin="round"/>
<path id="Vector_60" d="M185.85 112.977H202.861" stroke="#263238" stroke-width="2" stroke-linecap="round" stroke-linejoin="round"/>
<path id="Vector_61" d="M185.85 128.619H202.861" stroke="#263238" stroke-width="2" stroke-linecap="round" stroke-linejoin="round"/>
<path id="Vector_62" d="M180.323 58.7251H152.262V106.695H180.323V58.7251Z" fill="#BFBFBF" stroke="#263238" stroke-linecap="round" stroke-linejoin="round"/>
<path id="Vector_63" opacity="0.2" d="M177.643 93.1067H155.234V100.748H177.643V93.1067Z" fill="white"/>
<path id="Vector_64" d="M157.94 65.6003H174.952" stroke="#263238" stroke-width="2" stroke-linecap="round" stroke-linejoin="round"/>
<path id="Vector_65" d="M157.94 81.2422H174.952" stroke="#263238" stroke-width="2" stroke-linecap="round" stroke-linejoin="round"/>
<path id="Vector_66" d="M157.94 96.8895H174.952" stroke="#92E3A9" stroke-width="2" stroke-linecap="round" stroke-linejoin="round"/>
<path id="Vector_67" d="M178.626 101.264L176.681 102.466L178.05 104.629L176.273 105.727L174.903 103.563L173.066 104.694L172.365 97.498L178.626 101.264Z" fill="white" stroke="#263238" stroke-linecap="round" stroke-linejoin="round"/>
</g>
<g id="Character">
<path id="Vector_68" d="M114.636 109.217L116.57 101.934C110.63 97.8357 104.57 92.1506 99.0643 87.2591C96.6237 84.9887 94.3733 82.522 92.3358 79.8838L83.156 68.6714C81.5255 66.6604 77.4982 59.5515 73.373 62.8614C70.4055 64.8941 70.3783 72.1009 72.0197 76.4489C73.748 81.0415 75.7699 83.8568 79.3352 86.6776C82.9006 89.4984 92.0586 99.1129 93.5858 100.319C99.9937 105.417 107.005 107.782 114.636 109.217Z" fill="#263238"/>
<path id="Vector_69" d="M114.636 109.217L116.57 101.934C110.63 97.8357 104.57 92.1506 99.0643 87.2591C96.6237 84.9887 94.3733 82.522 92.3358 79.8838L83.156 68.6714C81.5255 66.6604 77.4982 59.5515 73.373 62.8614C70.4055 64.8941 70.3783 72.1009 72.0197 76.4489C73.748 81.0415 75.7699 83.8568 79.3352 86.6776C82.9006 89.4984 92.0586 99.1129 93.5858 100.319C99.9937 105.417 107.005 107.782 114.636 109.217Z" stroke="#263238" stroke-width="0.920831" stroke-linecap="round" stroke-linejoin="round"/>
<path id="Vector_70" d="M127.222 70.6384L127.064 71.47C127.064 71.4048 127.874 70.9265 128.287 71.1276C128.552 71.275 128.795 71.4578 129.01 71.6711L129.88 70.5188L128.13 70.1384L127.222 70.6384Z" fill="#263238" stroke="#263238" stroke-linecap="round" stroke-linejoin="round"/>
<path id="Vector_71" d="M128.131 70.1223L127.223 70.6387C127.099 71.1015 127.033 71.578 127.028 72.0572C127.055 72.5572 127.892 72.9105 128.348 73.1116C129.087 72.8018 130.202 72.0246 130.941 71.6985C132.028 70.405 132.832 72.1007 131.832 73.7692C131.832 73.7692 129.153 75.7367 127.256 76.84C125.956 77.0254 124.669 77.2904 123.402 77.6335C122.712 76.427 120.739 73.7475 120.739 73.7475C121.62 73.1279 123.951 68.6168 125.174 67.1711L128.952 66.9429C130.071 66.8668 130.392 67.807 131.397 69.0408L128.131 70.1223Z" fill="#757575" stroke="#263238" stroke-linecap="round" stroke-linejoin="round"/>
<g id="Vector_72">
<path d="M125.38 67.1604L130.701 66.5082C133.266 66.6006 135.538 66.8125 137.087 67.5952C137.353 67.7311 137.685 67.78 137.842 68.03C138.109 68.4485 137.788 68.7311 137.326 68.9159C136.814 69.0919 136.263 69.1257 135.734 69.0137C134.755 68.8018 131.386 69.0137 131.386 69.0137C129.915 69.3116 128.505 69.8516 127.211 70.6116" fill="#757575"/>
<path d="M125.38 67.1604L130.701 66.5082C133.266 66.6006 135.538 66.8125 137.087 67.5952C137.353 67.7311 137.685 67.78 137.842 68.03C138.109 68.4485 137.788 68.7311 137.326 68.9159C136.814 69.0919 136.263 69.1257 135.734 69.0137C134.755 68.8018 131.386 69.0137 131.386 69.0137C129.915 69.3116 128.505 69.8516 127.211 70.6116" stroke="#263238" stroke-linecap="round" stroke-linejoin="round"/>
</g>
<path id="Vector_73" d="M131.32 70.8286C131.295 71.1183 131.168 71.3895 130.962 71.595C130.266 72.008 129.386 72.5461 128.652 72.8831C128.211 72.7043 127.8 72.4586 127.434 72.1548L127.032 71.8124C127.092 71.5026 127.608 71.1656 127.918 71.1004C128.462 70.9862 129.005 71.6439 129.005 71.6439C128.641 71.2308 128.788 71.3939 128.788 71.3939C128.679 71.3395 128.608 71.258 128.5 71.2036C128.54 71.0456 128.627 70.9034 128.75 70.796C129.065 70.8601 129.393 70.8201 129.685 70.6819C129.239 71.0243 128.527 70.4264 128.125 70.1112L131.32 70.8286Z" fill="#757575" stroke="#263238" stroke-linecap="round" stroke-linejoin="round"/>
<path id="Vector_74" d="M124.619 78.4977L120.521 72.0572C112.874 74.7747 103.907 76.5629 96.0149 78.4108C92.493 79.2369 99.7814 92.3516 101.868 91.7537C110.592 89.259 117.728 84.4599 124.619 78.4977Z" fill="#263238"/>
<g id="Clip path group_2">
<mask id="mask1_1_10144" style="mask-type:luminance" maskUnits="userSpaceOnUse" x="95" y="72" width="30" height="20">
<g id="clip-path-2">
<path id="Vector_75" d="M124.619 78.4977L120.521 72.0572C112.874 74.7747 103.907 76.5629 96.0149 78.4108C92.493 79.2369 99.7814 92.3516 101.868 91.7537C110.592 89.259 117.728 84.4599 124.619 78.4977Z" fill="white"/>
</g>
</mask>
<g mask="url(#mask1_1_10144)">
<g id="Group_4">
<path id="Vector_76" opacity="0.4" d="M96.015 78.4107C94.5392 78.7492 93.0459 79.0068 91.542 79.1825L100.064 92.1341C100.912 91.9765 101.537 91.846 101.869 91.7536C110.592 89.259 117.728 84.4599 124.619 78.4976L120.521 72.0572C112.874 74.7801 103.907 76.5628 96.015 78.4107Z" fill="black" stroke="#263238" stroke-linecap="round" stroke-linejoin="round"/>
</g>
</g>
</g>
<path id="Vector_77" d="M124.619 78.4977L120.521 72.0572C112.874 74.7747 103.907 76.5629 96.0149 78.4108C92.493 79.2369 99.7814 92.3516 101.868 91.7537C110.592 89.259 117.728 84.4599 124.619 78.4977Z" stroke="#263238" stroke-linecap="round" stroke-linejoin="round"/>
<path id="Vector_78" d="M68.7149 240.14L74.7587 240.309H75.0956H80.6339C82.6666 240.309 82.4112 238.831 82.6449 236.82C82.9275 234.368 81.6068 231.83 81.6068 231.83H72.2912C71.9566 232.37 71.6763 232.942 71.4542 233.537C66.4485 237.119 68.7149 240.14 68.7149 240.14Z" fill="#263238" stroke="#263238" stroke-linecap="round" stroke-linejoin="round"/>
<path id="Vector_79" d="M114.13 240.14L108.423 240.303H107.76H102.64C100.233 240.303 100.124 238.368 100.173 235.955C100.255 234.508 100.642 233.095 101.309 231.808H111.043C111.432 232.407 111.752 233.047 111.999 233.716C116.956 238.493 114.13 240.14 114.13 240.14Z" fill="#263238" stroke="#263238" stroke-linecap="round" stroke-linejoin="round"/>
<path id="Vector_80" d="M108.412 240.303H108.015H107.749H108.412Z" fill="#263238" stroke="#263238" stroke-linecap="round" stroke-linejoin="round"/>
<path id="Vector_81" d="M120.744 137.68C120.744 137.68 117.907 188.225 116.266 197.063C115.766 199.78 113.363 218.678 113.005 222.683C113.005 222.683 113.744 226.265 113.054 229.205L112.374 230.765C111.217 233.184 101.026 233.298 100.684 232.64C100.341 231.983 99.0151 231.83 100.564 222.64C100.733 221.618 101.004 210.802 101.439 196.307C101.58 191.552 102.243 187.823 101.705 175.844C101.705 175.301 99.0259 144.256 98.9879 143.723L98.4444 143.935C98.3792 144.544 98.3248 145.126 98.265 145.68C98.0007 148.353 97.519 150.999 96.8247 153.593L87.0417 190.008V196.628C87.1939 204.688 86.4982 214.264 84.2699 222.026L84.4873 224.047C84.8949 227.852 85.7699 232.243 81.5089 232.977L72.8129 233.396C71.3672 233.396 69.7258 233.249 69.8182 231.814L70.6497 225.939C72.4324 219.151 71.8183 197.443 72.1226 190.432L75.7423 138.174L77.862 122.685L119.288 121.837L120.744 137.68Z" fill="#92E3A9"/>
<g id="Clip path group_3">
<mask id="mask2_1_10144" style="mask-type:luminance" maskUnits="userSpaceOnUse" x="69" y="121" width="52" height="113">
<g id="clip-path-3">
<path id="Vector_82" d="M120.744 137.68C120.744 137.68 117.907 188.225 116.266 197.063C115.766 199.78 113.363 218.678 113.005 222.683C113.005 222.683 113.744 226.265 113.054 229.205L112.374 230.765C111.217 233.184 101.026 233.298 100.684 232.64C100.341 231.983 99.0151 231.83 100.564 222.64C100.733 221.618 101.004 210.802 101.439 196.307C101.58 191.552 102.243 187.823 101.705 175.844C101.705 175.301 99.0259 144.256 98.9879 143.723L98.4444 143.935C98.3792 144.544 98.3248 145.126 98.265 145.68C98.0007 148.353 97.519 150.999 96.8247 153.593L87.0417 190.008V196.628C87.1939 204.688 86.4982 214.264 84.2699 222.026L84.4873 224.047C84.8949 227.852 85.7699 232.243 81.5089 232.977L72.8129 233.396C71.3672 233.396 69.7258 233.249 69.8182 231.814L70.6497 225.939C72.4324 219.151 71.8183 197.443 72.1226 190.432L75.7423 138.174L77.862 122.685L119.288 121.837L120.744 137.68Z" fill="white"/>
</g>
</mask>
<g mask="url(#mask2_1_10144)">
<g id="Group_5">
<path id="Vector_83" opacity="0.2" d="M98.3418 130.511C91.6187 131.054 84.5966 129.826 76.8028 127.25C76.6927 127.2 76.5917 127.132 76.5039 127.049C76.5039 127.049 92.4557 128.054 119.756 124.07C119.756 124.07 116.582 124.837 110.119 127.592C106.378 129.199 102.4 130.185 98.3418 130.511Z" fill="black"/>
<path id="Vector_84" opacity="0.2" d="M83.7432 143.973C85.5802 147.191 90.7 147.185 92.5859 150.37C94.3849 153.403 95.3034 158.8 93.9936 164.164L95.6567 157.952C97.5644 154.691 97.1187 152.479 97.8307 148.838C97.9394 148.294 98.2383 144.674 98.4231 143.946C98.4231 143.946 93.5316 145.213 93.124 145.229C89.0966 145.381 87.4607 144.897 83.7432 143.973Z" fill="black"/>
<path id="Vector_85" opacity="0.2" d="M102.445 174.779C102.587 176.54 102.853 178.361 103.837 179.823C104.82 181.285 106.728 182.263 108.386 181.676C109.19 181.388 109.864 180.774 110.739 180.709C110.994 180.677 111.253 180.724 111.48 180.843C111.707 180.963 111.893 181.149 112.011 181.377C112.081 181.573 112.093 181.784 112.047 181.986C112.001 182.188 111.898 182.373 111.75 182.519C111.092 183.388 110.152 184.046 109.641 185.008C109.13 185.97 109.326 187.464 110.38 187.758C109.326 187.725 107.88 188.062 107.951 189.111C108.022 190.307 110.125 190.742 109.935 191.899C107.778 194.6 106.394 197.834 105.929 201.258C104.934 208.607 108.38 215.672 107.195 222.797C107.089 223.356 107.19 223.935 107.479 224.425C107.768 224.915 108.226 225.283 108.766 225.461C108.843 225.484 108.921 225.502 109 225.515C107.002 226.173 104.913 226.51 102.809 226.515C101.896 227.569 107.353 232.89 107.348 232.254C107.348 232.178 104.869 233.434 104.793 233.423C101.706 232.917 100.586 234.282 98.2277 231.249C97.7171 230.585 97.3758 229.807 97.2331 228.982C92.3742 201.133 100.347 167.453 99.2712 144.196C99.3147 144.414 105.793 146.713 110.478 144.571C111.777 143.984 106.804 149.023 105.07 154.583C103.027 161.083 101.88 167.947 102.445 174.779Z" fill="black"/>
<path id="Vector_86" opacity="0.2" d="M85.4498 182.665C85.0277 183.395 84.4027 183.986 83.6508 184.366C82.2649 184.91 76.819 178.116 75.4114 177.632C77.156 183.04 80.4388 185.269 82.129 188.1C82.419 188.481 82.5618 188.954 82.5312 189.432C82.2214 191.062 76.6125 189.6 76.1179 191.187C77.3462 192.329 81.6888 193.013 83.0965 192.106C84.39 203.878 81.5258 216.775 74.7266 226.477C76.3897 227.205 78.1941 226.183 79.5528 224.977C79.5909 227.694 77.5419 231.841 75.4385 233.423C77.9495 233.966 82.6671 233.091 84.3085 231.113C86.4825 228.482 84.8031 224.553 85.0096 221.145C85.1129 219.411 85.7379 217.759 86.2542 216.107C88.2181 209.827 88.742 203.186 87.7869 196.677C87.4608 194.47 86.9662 192.253 87.1292 190.024C87.2923 187.796 88.1402 185.562 88.9228 183.41C89.5533 181.671 94.6296 169.056 92.673 169.083C92.673 169.083 86.7162 180.828 85.4498 182.665Z" fill="black"/>
</g>
</g>
</g>
<path id="Vector_87" d="M120.744 137.68C120.744 137.68 117.907 188.225 116.266 197.063C115.766 199.78 113.363 218.678 113.005 222.683C113.005 222.683 113.744 226.265 113.054 229.205L112.374 230.765C111.217 233.184 101.026 233.298 100.684 232.64C100.341 231.983 99.0151 231.83 100.564 222.64C100.733 221.618 101.004 210.802 101.439 196.307C101.58 191.552 102.243 187.823 101.705 175.844C101.705 175.301 99.0259 144.256 98.9879 143.723L98.4444 143.935C98.3792 144.544 98.3248 145.126 98.265 145.68C98.0007 148.353 97.519 150.999 96.8247 153.593L87.0417 190.008V196.628C87.1939 204.688 86.4982 214.264 84.2699 222.026L84.4873 224.047C84.8949 227.852 85.7699 232.243 81.5089 232.977L72.8129 233.396C71.3672 233.396 69.7258 233.249 69.8182 231.814L70.6497 225.939C72.4324 219.151 71.8183 197.443 72.1226 190.432L75.7423 138.174L77.862 122.685L119.288 121.837L120.744 137.68Z" stroke="#263238" stroke-linecap="round" stroke-linejoin="round"/>
<path id="Vector_88" d="M92.667 57.3341L96.4987 47.8228L95.2051 39.442L96.4987 30.2786L104.445 27.2839L111.01 27.2296L113.347 29.2242L113.978 32.0015C113.978 32.0015 116.059 39.3333 115.336 40.5508C114.614 41.7682 114.027 42.9476 114.027 42.9476C114.027 42.9476 115.603 46.551 115.657 47.9967C115.733 49.7251 113.679 48.1217 113.01 50.0838C112.342 52.0458 111.793 56.6058 109.347 56.459C106.901 56.3123 105.591 56.1384 104.999 58.2091C104.407 60.2798 102.923 65.9268 102.923 65.9268L92.667 57.3341Z" fill="#757575"/>
<g id="Clip path group_4">
<mask id="mask3_1_10144" style="mask-type:luminance" maskUnits="userSpaceOnUse" x="92" y="27" width="24" height="39">
<g id="clip-path-4">
<path id="Vector_89" d="M92.667 57.3341L96.4987 47.8228L95.2051 39.442L96.4987 30.2786L104.445 27.2839L111.01 27.2296L113.347 29.2242L113.978 32.0015C113.978 32.0015 116.059 39.3333 115.336 40.5508C114.614 41.7682 114.027 42.9476 114.027 42.9476C114.027 42.9476 115.603 46.551 115.657 47.9967C115.733 49.7251 113.679 48.1217 113.01 50.0838C112.342 52.0458 111.793 56.6058 109.347 56.459C106.901 56.3123 105.591 56.1384 104.999 58.2091C104.407 60.2798 102.923 65.9268 102.923 65.9268L92.667 57.3341Z" fill="white"/>
</g>
</mask>
<g mask="url(#mask3_1_10144)">
<g id="Group_6">
<path id="Vector_90" opacity="0.3" d="M102.635 35.9581C102.505 38.0506 103.352 39.7626 102.01 43.5671C102.01 43.5671 101.015 41.105 99.7436 41.0779C99.5134 41.0534 99.2808 41.0805 99.0624 41.1571C98.844 41.2337 98.6454 41.3579 98.481 41.5208C98.3166 41.6836 98.1905 41.881 98.1118 42.0986C98.0331 42.3163 98.0038 42.5487 98.0261 42.779C98.0261 43.828 98.4663 45.1324 99.4012 45.6433C99.4012 45.6433 98.3468 48.1216 98.1131 49.0673C97.4935 49.0673 96.4826 47.8336 96.4826 47.8336L95.3086 39.98C97.583 38.3542 100.042 37.0041 102.635 35.9581Z" fill="black"/>
</g>
</g>
</g>
<path id="Vector_91" d="M92.667 57.3341L96.4987 47.8228L95.2051 39.442L96.4987 30.2786L104.445 27.2839L111.01 27.2296L113.347 29.2242L113.978 32.0015C113.978 32.0015 116.059 39.3333 115.336 40.5508C114.614 41.7682 114.027 42.9476 114.027 42.9476C114.027 42.9476 115.603 46.551 115.657 47.9967C115.733 49.7251 113.679 48.1217 113.01 50.0838C112.342 52.0458 111.793 56.6058 109.347 56.459C106.901 56.3123 105.591 56.1384 104.999 58.2091C104.407 60.2798 102.923 65.9268 102.923 65.9268L92.667 57.3341Z" stroke="#263238" stroke-linecap="round" stroke-linejoin="round"/>
<path id="Vector_92" d="M112.059 42.2843C111.989 42.7843 111.684 43.1593 111.38 43.1159C111.075 43.0724 110.88 42.6321 110.956 42.1321C111.032 41.6321 111.331 41.2571 111.635 41.3006C111.94 41.344 112.157 41.7843 112.059 42.2843Z" fill="#263238"/>
<path id="Vector_93" d="M109.755 39.9797C109.755 39.9797 111.429 37.6427 113.559 39.4906" stroke="#263238" stroke-linecap="round" stroke-linejoin="round"/>
<path id="Vector_94" d="M110.575 50.4476C109.99 50.3895 109.428 50.1847 108.943 49.8523C108.457 49.5198 108.064 49.0703 107.798 48.5453" stroke="#263238" stroke-linecap="round" stroke-linejoin="round"/>
<path id="Vector_95" d="M108.646 56.3662C108.646 56.3662 103.45 53.7683 102.124 52.0182L105.032 58.1924C105.032 58.1924 105.363 55.3281 108.646 56.3662Z" fill="#263238" stroke="#263238" stroke-linecap="round" stroke-linejoin="round"/>
<path id="Vector_96" d="M90.0742 58.2958C90.0742 58.2958 93.0037 58.1925 97.6452 58.3936C101.199 58.6045 104.741 58.9982 108.254 59.573C108.254 59.573 107.048 55.7685 103.705 55.4913C100.363 55.2141 92.5961 55.1978 92.5961 55.1978L90.0742 58.2958Z" fill="white" stroke="#263238" stroke-linecap="round" stroke-linejoin="round"/>
<path id="Vector_97" d="M119.222 89.8513L118.951 91.8895C117.821 100.297 118.128 108.836 119.858 117.141L121.244 123.836C121.244 123.836 109.287 126.505 101.499 127.396C83.672 129.44 74.7423 126.657 74.7423 126.657C74.6469 123.407 74.9296 120.157 75.5847 116.972C80.3675 94.2537 71.4922 66.4264 73.8184 62.8828C75.5521 60.2251 90.0255 58.2196 90.0255 58.2196C90.0255 58.2196 103.363 57.8446 108.238 59.5403L108.836 59.9153C115.326 62.1328 120.472 64.5188 123.272 66.5134L122.244 69.0733C122.206 70.3288 119.222 89.8513 119.222 89.8513Z" fill="#263238"/>
<g id="Clip path group_5">
<mask id="mask4_1_10144" style="mask-type:luminance" maskUnits="userSpaceOnUse" x="73" y="58" width="51" height="71">
<g id="clip-path-5">
<path id="Vector_98" d="M119.222 89.8513L118.951 91.8895C117.821 100.297 118.128 108.836 119.858 117.141L121.244 123.836C121.244 123.836 109.287 126.505 101.499 127.396C83.672 129.44 74.7423 126.657 74.7423 126.657C74.6469 123.407 74.9296 120.157 75.5847 116.972C80.3675 94.2537 71.4922 66.4264 73.8184 62.8828C75.5521 60.2251 90.0255 58.2196 90.0255 58.2196C90.0255 58.2196 103.363 57.8446 108.238 59.5403L108.836 59.9153C115.326 62.1328 120.472 64.5188 123.272 66.5134L122.244 69.0733C122.206 70.3288 119.222 89.8513 119.222 89.8513Z" fill="white"/>
</g>
</mask>
<g mask="url(#mask4_1_10144)">
<g id="Group_7">
<path id="Vector_99" d="M72.704 96.9658C72.704 96.9658 74.84 104.113 72.6279 109.091L76.1661 110.178C76.1661 110.178 76.9705 104.167 76.4759 99.3083L72.704 96.9658Z" fill="#92E3A9"/>
<path id="Vector_100" opacity="0.6" d="M72.704 96.9658C72.704 96.9658 74.84 104.113 72.6279 109.091L76.1661 110.178C76.1661 110.178 76.9705 104.167 76.4759 99.3083L72.704 96.9658Z" fill="white"/>
<g id="Group_8" opacity="0.2">
<path id="Vector_101" d="M88.5086 99.3028C89.1772 100.7 89.8565 102.162 89.8294 103.711C89.7587 107.194 86.2857 109.526 83.2095 111.244C90.0638 108.965 97.3263 108.179 104.509 108.939C102.678 108.743 99.4276 105.205 98.0416 104.048C95.8473 102.201 93.7536 100.238 91.7697 98.1669C88.0062 94.3018 84.6882 90.0267 81.8779 85.4218C84.0465 90.0633 86.2966 94.6722 88.5086 99.3028Z" fill="black"/>
</g>
<g id="Group_9" opacity="0.2">
<path id="Vector_102" d="M103.357 102.732C105.016 103.051 106.727 102.973 108.351 102.505C109.974 102.038 111.464 101.194 112.7 100.042C111.113 99.0364 109.042 99.6832 107.167 99.9114C105.025 100.153 102.858 99.7894 100.911 98.8625C100.096 98.4712 97.0036 95.4982 96.1775 96.0743C93.7045 97.7755 102.178 102.499 103.357 102.732Z" fill="black"/>
</g>
<g id="Group_10" opacity="0.2">
<path id="Vector_103" d="M109.44 114.33C108.005 114.412 105.635 113.004 104.119 112.7C102.209 112.329 100.266 112.147 98.3199 112.156C94.0275 112.28 89.7807 113.072 85.7324 114.504C87.1183 116.678 94.7654 115.173 97.0427 115.048L109.44 114.33Z" fill="black"/>
</g>
</g>
</g>
</g>
<path id="Vector_104" d="M119.222 89.8513L118.951 91.8895C117.821 100.297 118.128 108.836 119.858 117.141L121.244 123.836C121.244 123.836 109.287 126.505 101.499 127.396C83.672 129.44 74.7423 126.657 74.7423 126.657C74.6469 123.407 74.9296 120.157 75.5847 116.972C80.3675 94.2537 71.4922 66.4264 73.8184 62.8828C75.5521 60.2251 90.0255 58.2196 90.0255 58.2196C90.0255 58.2196 103.363 57.8446 108.238 59.5403L108.836 59.9153C115.326 62.1328 120.472 64.5188 123.272 66.5134L122.244 69.0733C122.206 70.3288 119.222 89.8513 119.222 89.8513Z" stroke="#263238" stroke-linecap="round" stroke-linejoin="round"/>
<path id="Vector_105" d="M80.2207 82.3133C85.2479 93.1329 93.3252 102.249 103.461 108.543" stroke="#757575" stroke-linecap="round" stroke-linejoin="round"/>
<path id="Vector_106" d="M79.2803 80.1774C79.4651 80.6339 79.4705 80.6339 79.6662 81.0796" stroke="#757575" stroke-linecap="round" stroke-linejoin="round"/>
<path id="Vector_107" d="M77.916 76.4757C78.1606 77.204 78.4215 77.9268 78.6987 78.6497" stroke="#757575" stroke-linecap="round" stroke-linejoin="round"/>
<path id="Vector_108" d="M96.9385 99.8463C98.5875 101.61 100.696 102.878 103.026 103.509C106.423 104.346 110.488 103.102 112.118 100.047" stroke="#757575" stroke-linecap="round" stroke-linejoin="round"/>
<path id="Vector_109" d="M94.8574 97.3733C95.1944 97.8462 95.5477 98.3082 95.9444 98.7593" stroke="#757575" stroke-linecap="round" stroke-linejoin="round"/>
<path id="Vector_110" d="M84.2812 115.005C92.7508 111.768 102.091 111.622 110.657 114.592" stroke="#757575" stroke-linecap="round" stroke-linejoin="round"/>
<path id="Vector_111" d="M92.2324 109.885C95.2598 108.975 98.488 108.975 101.515 109.885" stroke="#757575" stroke-linecap="round" stroke-linejoin="round"/>
<path id="Vector_112" d="M102.917 61.1111C107.809 61.1354 112.668 61.9277 117.314 63.459" stroke="#263238" stroke-linecap="round" stroke-linejoin="round"/>
<path id="Vector_113" d="M98.0254 42.7787C98.2079 43.6255 98.5312 44.4357 98.9819 45.1755C99.8026 46.2625 100.612 46.4093 101.449 46.2082" stroke="#263238" stroke-linecap="round" stroke-linejoin="round"/>
<path id="Vector_114" d="M114.412 32.1645C114.769 32.2274 115.11 32.3603 115.416 32.5554C115.721 32.7506 115.985 33.0042 116.192 33.3017C116.399 33.5992 116.545 33.9347 116.622 34.289C116.699 34.6432 116.705 35.0091 116.64 35.3657C117.039 35.0519 117.316 34.6084 117.422 34.112C117.528 33.6157 117.458 33.0978 117.222 32.6482C116.76 31.8058 115.341 31.8167 114.412 32.1645Z" fill="#263238" stroke="#263238" stroke-linecap="round" stroke-linejoin="round"/>
<path id="Vector_115" d="M113.945 29.9742C113.296 28.6866 112.434 27.518 111.396 26.5176C107.798 22.9902 97.8084 27.2241 95.5257 29.4742C93.1234 31.8167 93.5582 40.5507 94.6126 40.3442C97.4225 39.8007 102.765 39.3713 102.765 39.3713C104.657 38.9257 102.439 34.4798 104.156 33.5885C111.314 29.8546 113.635 33.2461 114.059 32.3765C114.483 31.5069 114.787 30.4634 113.945 29.9742Z" fill="#263238" stroke="#263238" stroke-linecap="round" stroke-linejoin="round"/>
<path id="Vector_116" d="M92.4661 40.1756C91.2378 41.0289 89.4333 40.6213 88.205 41.4746C87.2648 42.1268 86.9278 43.3279 86.7539 44.4475C86.3627 46.9831 86.4903 49.5717 87.1289 52.0565C89.3036 50.6245 91.2064 48.8173 92.7487 46.7193C94.1346 44.7791 93.7161 42.192 92.4661 40.1756Z" fill="#263238" stroke="#263238" stroke-linecap="round" stroke-linejoin="round"/>
<g id="Vector_117">
<path d="M94.1241 39.0775C93.6581 39.1172 93.2185 39.3107 92.8745 39.6276C92.5304 39.9445 92.3015 40.3667 92.2237 40.8279C92.1459 41.2891 92.2237 41.7631 92.4447 42.1753C92.6657 42.5875 93.0175 42.9145 93.4447 43.1049C93.7207 43.2457 94.0338 43.2962 94.3401 43.2494C94.6463 43.2026 94.9301 43.0608 95.1513 42.844C95.3787 42.5048 95.4998 42.1055 95.4992 41.6972C95.5916 40.7461 95.4448 39.458 94.4883 39.3003" fill="#92E3A9"/>
<path d="M94.1241 39.0775C93.6581 39.1172 93.2185 39.3107 92.8745 39.6276C92.5304 39.9445 92.3015 40.3667 92.2237 40.8279C92.1459 41.2891 92.2237 41.7631 92.4447 42.1753C92.6657 42.5875 93.0175 42.9145 93.4447 43.1049C93.7207 43.2457 94.0338 43.2962 94.3401 43.2494C94.6463 43.2026 94.9301 43.0608 95.1513 42.844C95.3787 42.5048 95.4998 42.1055 95.4992 41.6972C95.5916 40.7461 95.4448 39.458 94.4883 39.3003" stroke="#263238" stroke-linecap="round" stroke-linejoin="round"/>
</g>
<path id="Vector_118" d="M152.104 72.2853C153.066 71.644 154.463 71.3885 155.012 70.3776C155.736 69.0768 156.447 67.776 157.142 66.4753C156.771 64.6342 155.852 62.9483 154.506 61.6381C155.903 59.1163 156.501 57.9423 157.903 55.4205C157.903 54.4639 157.425 54.1704 156.745 54.5345C155.115 56.8499 153.86 58.3988 152.229 60.7142C151.235 60.3237 150.158 60.191 149.098 60.3283C148.024 61.4017 147.242 62.7319 146.827 64.1926C146.291 66.0926 146.433 68.1198 147.229 69.9265C148.178 69.8472 149.131 70.0243 149.989 70.4392C150.847 70.8541 151.577 71.4917 152.104 72.2853Z" fill="#757575" stroke="#263238" stroke-linecap="round" stroke-linejoin="round"/>
<path id="Vector_119" d="M118.614 81.8077C118.499 82.7857 118.625 83.7769 118.981 84.695C119.337 85.613 119.913 86.4298 120.657 87.0742C123.63 89.6613 133.881 96.3627 136.12 96.6181C136.993 96.7134 137.877 96.6638 138.734 96.4714C141.805 95.8192 152.267 72.6443 152.267 72.6443C151.724 71.1768 149.376 69.9703 147.783 69.9268C146.191 69.8833 145.348 70.3888 144.397 71.6497C144.327 71.7475 135.978 82.5197 135.978 82.5197C134.679 82.5197 129.25 75.7423 128.804 74.5357C127.489 70.954 125.266 67.6604 123.288 66.5082C123.288 66.5136 120.364 66.9158 118.614 81.8077Z" fill="#263238" stroke="#263238" stroke-linecap="round" stroke-linejoin="round"/>
<path id="Vector_120" d="M136.674 83.373C136.674 83.373 139.636 85.3459 140.669 86.7209" stroke="#757575" stroke-linecap="round" stroke-linejoin="round"/>
<path id="Vector_121" d="M136.713 84.6284C137.472 85.4994 137.862 86.6322 137.8 87.7861" stroke="#757575" stroke-linecap="round" stroke-linejoin="round"/>
<path id="Vector_122" d="M128.511 73.8017C129.321 75.7084 129.624 77.7923 129.391 79.8508" stroke="#757575" stroke-linecap="round" stroke-linejoin="round"/>
<path id="Vector_123" d="M111.956 185.046C109.943 186.226 107.673 186.899 105.342 187.008C107.474 186.839 109.614 187.236 111.543 188.16" stroke="#263238" stroke-linecap="round" stroke-linejoin="round"/>
<path id="Vector_124" d="M104.792 190.481C107.125 190.872 109.435 191.393 111.711 192.041" stroke="#263238" stroke-linecap="round" stroke-linejoin="round"/>
<path id="Vector_125" d="M115.826 141.386C111.146 145.462 104.635 146.734 98.9771 143.734C93.4279 146.098 85.3624 145.827 80.498 142.245" stroke="#263238" stroke-linecap="round" stroke-linejoin="round"/>
<path id="Vector_126" d="M118.049 139.066C117.69 139.511 117.315 139.941 116.924 140.343" stroke="#263238" stroke-linecap="round" stroke-linejoin="round"/>
<path id="Vector_127" d="M106.488 130.794H101.999" stroke="#263238" stroke-linecap="round" stroke-linejoin="round"/>
<path id="Vector_128" d="M109.912 130.794H107.912" stroke="#263238" stroke-linecap="round" stroke-linejoin="round"/>
<path id="Vector_129" d="M116.152 130.794H111.141" stroke="#263238" stroke-linecap="round" stroke-linejoin="round"/>
<path id="Vector_130" d="M85.0303 130.794H95.3894" stroke="#263238" stroke-linecap="round" stroke-linejoin="round"/>
<path id="Vector_131" d="M81.2373 130.794H83.02" stroke="#263238" stroke-linecap="round" stroke-linejoin="round"/>
<path id="Vector_132" d="M73.0742 226.162C74.6794 226.629 76.3877 226.606 77.9799 226.096C79.572 225.586 80.9752 224.611 82.0094 223.297" stroke="#263238" stroke-linecap="round" stroke-linejoin="round"/>
<g id="Vector_133">
<path d="M102.629 226.243C103.856 226.617 105.157 226.677 106.413 226.418C107.67 226.159 108.841 225.588 109.819 224.759" fill="#92E3A9"/>
<path d="M102.629 226.243C103.856 226.617 105.157 226.677 106.413 226.418C107.67 226.159 108.841 225.588 109.819 224.759" stroke="#263238" stroke-linecap="round" stroke-linejoin="round"/>
</g>
<path id="Vector_134" d="M85.0309 190.562H84.7917C82.8079 192.877 78.5849 192.991 76.0957 191.187L81.2209 190.1" stroke="#263238" stroke-linecap="round" stroke-linejoin="round"/>
<path id="Vector_135" d="M77.1553 181.318C78.8726 184.43 81.4152 187.008 84.5034 188.769" stroke="#263238" stroke-linecap="round" stroke-linejoin="round"/>
<path id="Vector_136" d="M75.4111 176.948C75.5982 177.686 75.8323 178.413 76.1122 179.122" stroke="#263238" stroke-linecap="round" stroke-linejoin="round"/>
<path id="Vector_137" d="M124.115 67.7801C123.853 67.7899 123.598 67.8709 123.379 68.0146C123.159 68.1583 122.984 68.3591 122.87 68.5954C120.631 72.2912 119.533 77.5686 120.093 84.4602" stroke="#757575" stroke-linecap="round" stroke-linejoin="round"/>
<path id="Vector_138" d="M76.7479 61.4807C73.8457 64.7417 73.8456 72.2855 75.3566 80.6282" stroke="#757575" stroke-linecap="round" stroke-linejoin="round"/>
<path id="Vector_139" d="M98.5146 132.272L98.819 141.229" stroke="#263238" stroke-linecap="round" stroke-linejoin="round"/>
<path id="Vector_140" d="M98.4004 128.848L98.4656 130.793" stroke="#263238" stroke-linecap="round" stroke-linejoin="round"/>
</g>
<g id="Floor">
<path id="Vector_141" d="M229.39 240.319H1" stroke="#263238" stroke-linecap="round" stroke-linejoin="round"/>
</g>
</g>
</svg>
