 <svg
    width="20"
    height="20"
    viewBox="0 0 454 252"
    fill="none"
    xmlns="http://www.w3.org/2000/svg"
  >
    <path
      d="M449.382 130.137C437.082 126.247 424.594 123.172 411.792 121.54C375.519 116.959 342.385 124.176 314.271 148.713C284.964 174.317 269.087 208.204 256.16 243.912C254.905 247.426 257.101 247.677 259.674 248.054C274.735 250.187 289.859 251.568 308.686 251.756C313.58 251.944 321.99 251.254 330.399 250.376C359.58 247.175 386.439 238.076 408.591 217.869C433.191 195.465 445.491 166.41 453.398 134.907C454.402 130.765 451.515 130.765 449.382 130.075V130.137ZM374.641 178.521C365.793 200.297 354.371 219.626 329.771 226.654C317.973 229.98 306.364 228.411 294.754 225.462C291.616 224.646 291.491 223.077 292.056 220.379C298.331 189.88 318.915 172.873 349.665 172.873C357.321 172.748 364.851 173.94 372.319 175.384C374.139 175.76 375.771 175.948 374.704 178.459L374.641 178.521Z"
      fill="#F5811F"
    />
    <path
      d="M197.548 239.833C190.645 223.454 183.303 207.326 173.952 192.139C157.887 166.096 138.244 143.818 109.816 130.828C74.4855 114.637 38.6528 118.026 2.63151 128.38C-0.945514 129.384 -0.00436037 131.33 0.497678 133.652C3.00787 145.701 6.45934 157.436 11.0404 168.794C22.8383 197.975 41.0371 221.634 69.716 236.005C91.743 247.05 115.402 250.627 143.014 250.564C158.263 250.689 176.462 248.179 194.661 245.104C198.301 244.477 198.991 243.159 197.548 239.707V239.833ZM157.824 225.462C150.231 227.596 142.637 229.227 136.299 229.102C115.465 229.227 101.282 220.316 90.6763 204.816C85.4049 197.097 81.7025 188.562 78.6903 179.776C77.9373 177.58 76.8077 175.195 80.6357 174.693C96.7009 172.622 112.703 172.12 127.953 178.898C146.34 187.056 155.376 202.494 160.46 221.006C161.15 223.642 160.46 224.772 157.824 225.525V225.462Z"
      fill="#0093D9"
    />
    <path
      d="M280.76 89.7861C275.488 53.6393 255.407 25.9644 229.991 1.36453C227.481 -1.0829 226.226 0.172217 224.343 1.92935C214.365 11.0916 205.015 20.8185 196.856 31.7379C172.319 64.5587 163.534 100.58 174.955 140.555C184.431 173.564 203.572 201.05 225.41 226.905C228.297 230.357 229.301 228.035 230.932 225.964C240.283 213.978 249.131 201.552 256.725 188.374C271.221 163.146 281.701 136.664 282.078 106.918C281.638 101.207 281.513 95.4967 280.697 89.8488L280.76 89.7861ZM228.485 184.734C226.728 186.491 225.536 186.303 223.841 184.671C201.94 163.899 194.346 139.802 209.972 111.876C213.926 104.847 218.821 98.509 224.029 92.4218C225.661 90.4764 226.916 89.5978 228.924 92.1708C240.032 106.604 248.943 121.979 249.445 140.492C249.194 158.691 240.785 172.622 228.485 184.797V184.734Z"
      fill="#EC1B24"
    />
    <path
      d="M372.758 13.3508C372.319 10.0875 370.938 8.8324 367.612 10.0247C360.709 12.5349 353.492 14.4804 346.84 17.4926C323.37 28.0354 306.489 44.7909 299.837 70.3949C295.883 85.7071 295.632 101.333 298.017 116.833C300.903 135.785 299.272 132.836 314.458 127.565C330.084 122.168 343.891 113.821 355.124 101.647C370.31 85.2678 376.084 65.4373 375.456 42.1552C376.084 33.244 374.138 23.3288 372.758 13.288V13.3508ZM315.776 109.303C313.203 110.119 312.074 108.926 311.383 106.416C310.505 103.278 310.756 100.141 310.63 97.0029C310.379 79.1806 321.926 66.002 338.556 59.7893C341.318 58.7852 342.196 59.6638 342.949 62.174C350.229 86.0209 338.745 102.086 315.839 109.303H315.776Z"
      fill="#D0E188"
    />
    <path
      d="M155.879 99.3879C156.381 72.7798 147.909 52.008 129.459 35.4407C119.418 26.404 107.871 19.6892 95.4457 14.9826C78.1881 8.45612 80.3219 6.32249 76.7449 24.7724C76.6821 25.2117 76.4311 25.5882 76.3684 25.9647C71.6618 52.1335 74.925 76.6078 92.8101 97.4424C107.557 114.637 127.388 124.051 148.16 131.644C150.481 132.46 151.549 132.02 152.051 129.322C153.871 118.716 156.694 108.299 155.941 99.3251L155.879 99.3879ZM137.177 110.056C132.973 112.253 127.89 107.797 123.623 105.036C110.381 96.3129 103.353 77.612 107.495 62.6763C108.248 59.9779 109.879 59.9779 111.762 60.6054C128.392 66.0023 140.755 73.5329 140.441 96.1246C140.253 101.145 141.382 107.923 137.115 110.119L137.177 110.056Z"
      fill="#D0E188"
    />
  </svg>