<svg xmlns="http://www.w3.org/2000/svg" xmlns:xlink="http://www.w3.org/1999/xlink" width="568" height="568" viewBox="0 0 568 568">
  <defs>
    <clipPath id="clip-path">
      <rect id="Rectangle_1007" data-name="Rectangle 1007" width="65.182" height="257.312" fill="none"/>
    </clipPath>
    <clipPath id="clip-path-3">
      <path id="Path_705" data-name="Path 705" d="M68.305,335.034a.391.391,0,0,0,.187.337l.073-.614a.38.38,0,0,1-.188-.337Z" transform="translate(-68.304 -334.42)" fill="none"/>
    </clipPath>
    <clipPath id="clip-path-4">
      <path id="Path_707" data-name="Path 707" d="M75.436,337.132l-.071.613a.373.373,0,0,0,.255-.28l.072-.615a.374.374,0,0,1-.255.283" transform="translate(-75.365 -336.849)" fill="none"/>
    </clipPath>
    <clipPath id="clip-path-6">
      <path id="Path_711" data-name="Path 711" d="M72.28,338.3a1.178,1.178,0,0,0,1.062.121l.073-.615a1.177,1.177,0,0,1-1.065-.121Z" transform="translate(-72.28 -337.689)" fill="none"/>
    </clipPath>
    <clipPath id="clip-path-8">
      <path id="Path_714" data-name="Path 714" d="M84.118,328.052a.385.385,0,0,0,.189.337l.072-.614a.383.383,0,0,1-.189-.337Z" transform="translate(-84.116 -327.438)" fill="none"/>
    </clipPath>
    <clipPath id="clip-path-9">
      <path id="Path_716" data-name="Path 716" d="M91.252,330.149l-.073.614a.378.378,0,0,0,.255-.281l.071-.613a.37.37,0,0,1-.253.28" transform="translate(-91.179 -329.869)" fill="none"/>
    </clipPath>
    <clipPath id="clip-path-11">
      <path id="Path_720" data-name="Path 720" d="M88.1,331.323a1.192,1.192,0,0,0,1.062.122l.07-.615a1.169,1.169,0,0,1-1.062-.121Z" transform="translate(-88.095 -330.708)" fill="none"/>
    </clipPath>
    <clipPath id="clip-path-13">
      <path id="Path_724" data-name="Path 724" d="M85.436,327.466l.993.736a2.356,2.356,0,0,0-.868-1.677l-.99-.737a2.326,2.326,0,0,1,.865,1.677" transform="translate(-84.571 -325.789)" fill="none"/>
    </clipPath>
    <clipPath id="clip-path-15">
      <rect id="Rectangle_1005" data-name="Rectangle 1005" width="11.279" height="12.594" fill="none"/>
    </clipPath>
    <clipPath id="clip-path-16">
      <rect id="Rectangle_391" data-name="Rectangle 391" width="19.639" height="19.639" fill="#fff"/>
    </clipPath>
    <clipPath id="clip-path-17">
      <rect id="Rectangle_1024" data-name="Rectangle 1024" width="317.628" height="264.191" fill="none"/>
    </clipPath>
    <clipPath id="clip-path-19">
      <rect id="Rectangle_1009" data-name="Rectangle 1009" width="49.297" height="20.061" transform="translate(258.537 237.076)" fill="none"/>
    </clipPath>
    <clipPath id="clip-path-20">
      <path id="Path_783" data-name="Path 783" d="M296.622,204.315a.337.337,0,0,0,.178.286l.037-.536a.337.337,0,0,1-.18-.286Z" fill="none"/>
    </clipPath>
    <clipPath id="clip-path-21">
      <path id="Path_785" data-name="Path 785" d="M300.388,205.1l-.036.537a.324.324,0,0,0,.208-.255l.036-.536a.313.313,0,0,1-.208.254" fill="none"/>
    </clipPath>
    <clipPath id="clip-path-23">
      <path id="Path_789" data-name="Path 789" d="M298.761,205.908a1.032,1.032,0,0,0,.928.063l.036-.537a1.024,1.024,0,0,1-.927-.061Z" fill="none"/>
    </clipPath>
    <clipPath id="clip-path-25">
      <path id="Path_792" data-name="Path 792" d="M304.636,200.3a.337.337,0,0,0,.177.285l.037-.534a.338.338,0,0,1-.178-.286Z" fill="none"/>
    </clipPath>
    <clipPath id="clip-path-26">
      <path id="Path_794" data-name="Path 794" d="M308.4,201.085l-.037.536a.319.319,0,0,0,.209-.254l.036-.535a.32.32,0,0,1-.208.253" fill="none"/>
    </clipPath>
    <clipPath id="clip-path-28">
      <path id="Path_798" data-name="Path 798" d="M306.777,201.892a1.026,1.026,0,0,0,.927.061l.035-.537a1.027,1.027,0,0,1-.926-.06Z" fill="none"/>
    </clipPath>
    <clipPath id="clip-path-30">
      <path id="Path_802" data-name="Path 802" d="M305.625,200.318l.892.6a2.031,2.031,0,0,0-.824-1.417l-.894-.6a2.028,2.028,0,0,1,.826,1.418" fill="none"/>
    </clipPath>
    <clipPath id="clip-path-32">
      <rect id="Rectangle_1015" data-name="Rectangle 1015" width="49.353" height="20.316" transform="translate(9.806 142.185)" fill="none"/>
    </clipPath>
    <clipPath id="clip-path-33">
      <path id="Path_850" data-name="Path 850" d="M20.647,108.673l.038.535a.336.336,0,0,0,.175-.284l-.035-.53a.324.324,0,0,1-.178.279" fill="none"/>
    </clipPath>
    <clipPath id="clip-path-34">
      <path id="Path_852" data-name="Path 852" d="M16.948,109.986a.324.324,0,0,0,.208.254l-.035-.531a.327.327,0,0,1-.208-.254Z" fill="none"/>
    </clipPath>
    <clipPath id="clip-path-36">
      <path id="Path_856" data-name="Path 856" d="M17.779,110.032l.035.535a1.021,1.021,0,0,0,.92-.06l-.033-.535a1,1,0,0,1-.922.06" fill="none"/>
    </clipPath>
    <clipPath id="clip-path-38">
      <path id="Path_859" data-name="Path 859" d="M12.69,104.687l.038.529a.329.329,0,0,0,.174-.282l-.036-.531a.335.335,0,0,1-.176.284" fill="none"/>
    </clipPath>
    <clipPath id="clip-path-39">
      <path id="Path_861" data-name="Path 861" d="M8.991,106a.321.321,0,0,0,.206.252l-.035-.531a.324.324,0,0,1-.207-.253Z" fill="none"/>
    </clipPath>
    <clipPath id="clip-path-41">
      <path id="Path_865" data-name="Path 865" d="M9.819,106.044l.035.534a1.03,1.03,0,0,0,.923-.061l-.036-.532a1.016,1.016,0,0,1-.922.059" fill="none"/>
    </clipPath>
    <clipPath id="clip-path-43">
      <path id="Path_869" data-name="Path 869" d="M11.851,104.14a2.023,2.023,0,0,0-.816,1.407l.885-.592a2.022,2.022,0,0,1,.819-1.409Z" fill="none"/>
    </clipPath>
    <clipPath id="clip-path-45">
      <rect id="Rectangle_1021" data-name="Rectangle 1021" width="52.135" height="20.303" transform="translate(67.567 243.888)" fill="none"/>
    </clipPath>
    <clipPath id="clip-path-46">
      <rect id="Rectangle_1022" data-name="Rectangle 1022" width="48.05" height="21.152" transform="translate(223.55 113.315)" fill="none"/>
    </clipPath>
    <clipPath id="clip-path-47">
      <rect id="Rectangle_1027" data-name="Rectangle 1027" width="50.792" height="21.098" fill="none"/>
    </clipPath>
    <clipPath id="clip-path-48">
      <rect id="Rectangle_1026" data-name="Rectangle 1026" width="50.791" height="21.098" transform="translate(0 0)" fill="none"/>
    </clipPath>
    <clipPath id="clip-path-49">
      <rect id="Rectangle_1025" data-name="Rectangle 1025" width="50.792" height="21.098" transform="translate(0 0)" fill="none"/>
    </clipPath>
    <clipPath id="clip-path-50">
      <rect id="Rectangle_972" data-name="Rectangle 972" width="35.594" height="27.212" fill="none"/>
    </clipPath>
    <clipPath id="clip-path-52">
      <rect id="Rectangle_967" data-name="Rectangle 967" width="33.346" height="26.601" fill="none"/>
    </clipPath>
    <clipPath id="clip-path-53">
      <path id="Path_589" data-name="Path 589" d="M23.553,12.937,20.656,0,0,26.6l33.346-4.726Z" fill="none"/>
    </clipPath>
    <linearGradient id="linear-gradient" x1="-0.067" y1="1" x2="-0.033" y2="1" gradientUnits="objectBoundingBox">
      <stop offset="0" stop-color="#fff"/>
      <stop offset="0.038" stop-color="#fff"/>
      <stop offset="1"/>
    </linearGradient>
    <clipPath id="clip-path-55">
      <rect id="Rectangle_970" data-name="Rectangle 970" width="33.346" height="13.664" fill="none"/>
    </clipPath>
    <clipPath id="clip-path-56">
      <path id="Path_591" data-name="Path 591" d="M0,13.663,23.553,0l9.792,8.937Z" fill="none"/>
    </clipPath>
    <linearGradient id="linear-gradient-2" x1="0.025" y1="0.736" x2="0.057" y2="0.736" xlink:href="#linear-gradient"/>
  </defs>
  <g id="Group_20384" data-name="Group 20384" transform="translate(10516 9200)">
    <g id="Rectangle_15613" data-name="Rectangle 15613" transform="translate(-10516 -9200)" fill="#fff" stroke="#707070" stroke-width="1" opacity="0">
      <rect width="568" height="568" stroke="none"/>
      <rect x="0.5" y="0.5" width="567" height="567" fill="none"/>
    </g>
    <g id="Group_20380" data-name="Group 20380" transform="translate(-10552.186 -9437.289)">
      <g id="Group_1848" data-name="Group 1848" transform="translate(3 -12)">
        <g id="Rectangle_1008" data-name="Rectangle 1008" transform="translate(227 468)" fill="#fff" stroke="#707070" stroke-width="1">
          <rect width="176" height="206" rx="28" stroke="none"/>
          <rect x="0.5" y="0.5" width="175" height="205" rx="27.5" fill="none"/>
        </g>
        <g id="Group_1818" data-name="Group 1818" transform="translate(277.61 339.344)">
          <g id="Group_1847" data-name="Group 1847" clip-path="url(#clip-path)">
            <g id="Group_1819" data-name="Group 1819">
              <g id="Group_1818-2" data-name="Group 1818" clip-path="url(#clip-path)">
                <path id="Path_658" data-name="Path 658" d="M44.037,173.774l3.583-.339.9-4.373-.146-.385-2.148-6.556a5.044,5.044,0,0,0-4.716,4.109l.013,4.492c.113,1.52.87,3.2,2.509,3.053" transform="translate(-16.755 -65.431)" fill="#ffe8d9"/>
                <path id="Path_659" data-name="Path 659" d="M49.786,178.22c-4.3-2.855-9.238,2.254-9.238,2.254s1.074,7.546,1.078,8.159c.052,4.732,1.944,12.668,2.243,16.958.329,4.71,1.5,13.109,1.5,13.109s.717,9.927,5.854,10.655c2.938.416,7.079-2.842,5.509-10.434-.6-2.916-3.048-15.2-3.048-15.2l-2.22-23.661a4.542,4.542,0,0,0-1.681-1.845" transform="translate(-16.365 -71.579)" fill="#141413"/>
                <path id="Path_660" data-name="Path 660" d="M73.114,243.113s-2.323-4.613-4.607-5.623-9.786-.967-9.786-.967-4.417,8.492-4.486,9.084S55.3,261.922,55.3,261.922l10.369-7.439Z" transform="translate(-21.888 -95.459)" fill="#ededed"/>
                <rect id="Rectangle_998" data-name="Rectangle 998" width="2.74" height="5.978" transform="translate(28.895 242.484) rotate(-83.492)" fill="#282827"/>
                <path id="Path_661" data-name="Path 661" d="M37.186,395.259l-.731,2.613s-5.293,9.133-5.677,9.661a1.589,1.589,0,0,0-.1,1.752,1.147,1.147,0,0,0,.586.5,4.993,4.993,0,0,0,3.6-.495c2.551-1.112,6.881-5.383,6.881-5.383.373-.626,3.219-3.36,3.343-3.736,0,0,.973-.7,1.462-.426a4.238,4.238,0,0,1,.577,1.024l2.212-3.181a9.317,9.317,0,0,0-.9-2.482l-2.3-4.559Z" transform="translate(-12.29 -157.624)" fill="#110f10"/>
                <path id="Path_662" data-name="Path 662" d="M31.144,415.382a5.446,5.446,0,0,0,3.778-.459c3.849-1.6,7.36-6.671,7.36-6.671a13.046,13.046,0,0,1,2.816-2.819s1.093-.582,1.58.214c.1.165.092.006.185.2a.65.65,0,0,0-.16-.194c-.489-.277-.935.874-.935.874-.594-.149-.614-.715-2.532,1.641,0,0-3.6,5.255-7.181,7.134-1.13.593-3.329,1.162-4.6.609a1.3,1.3,0,0,1-.7-.81,2.8,2.8,0,0,0,.383.279" transform="translate(-12.415 -163.548)" fill="#282827"/>
                <path id="Path_663" data-name="Path 663" d="M57.311,403.338l2.4-3.419a13.73,13.73,0,0,1,.5,1.436L58,404.536c-.053-.1-.522-.928-.686-1.2" transform="translate(-23.13 -161.406)" fill="#282827"/>
                <path id="Path_664" data-name="Path 664" d="M42.375,312.435s-6.528,23.387-6.528,26.087S39.273,360.4,39.273,360.4c-.245,2.141-.541,2.579.092,3.289,2.372,2.662,10.9,4.68,12.258.132l-.568-22.742,9.71-28.534Z" transform="translate(-14.468 -126.097)" fill="#21201f"/>
                <path id="Path_665" data-name="Path 665" d="M94.693,408.1l3.389-.8L96.3,405.2Z" transform="translate(-38.218 -163.536)" fill="#282827"/>
                <path id="Path_666" data-name="Path 666" d="M80.162,399.679l-1.37,8.079s-.771,4-1.223,5.266a2.116,2.116,0,0,0,.357,1.861,1.524,1.524,0,0,0,1.028.629,7.569,7.569,0,0,0,3.744-.983c3.354-1.751,4.724-5.918,4.724-5.918.215-.7,1.647-5.438,1.721-5.827.206-1.091.632-1.809,1.172-1.651,0,0,.713.895.821,1.023l1.107-4.092a16.081,16.081,0,0,0-1.167-1.722l-3.306-3.888Z" transform="translate(-31.272 -158.393)" fill="#110f10"/>
                <path id="Path_667" data-name="Path 667" d="M78.406,420.761c1.326.4,3.172-.38,4.323-.926a8.95,8.95,0,0,0,4.805-5.952c.432-1.334,1.6-5.108,1.733-5.467,0,0,.536-2.348,1.344-1.558a2.741,2.741,0,0,1,.324.315.883.883,0,0,0-.231-.128c-.658-.409-1.215,1.935-1.215,1.935-.033.391-1.254,4.809-1.468,5.506,0,0-.937,4.36-4.869,6.091-1.168.511-2.664,1.147-3.989.751a1.781,1.781,0,0,1-.757-.568" transform="translate(-31.642 -164.14)" fill="#282827"/>
                <path id="Path_668" data-name="Path 668" d="M98.873,404.135s.67-1.77.917-2.349c.575-1.36.379-1.836.379-1.836a12.147,12.147,0,0,1,.808,1.2s.231.332-.054,1.164c-.257.749-1.158,2.87-1.158,2.87Z" transform="translate(-39.905 -161.418)" fill="#282827"/>
                <path id="Path_669" data-name="Path 669" d="M51.207,314.358l16.568,49.227c.431,1.485,1.214,1.778,2.6,2.083,8.454,1.855,11.375-2.271,11.375-2.271.5-.5.336-.881.246-1.417l-13.7-54.4Z" transform="translate(-20.667 -124.136)" fill="#383736"/>
                <path id="Path_670" data-name="Path 670" d="M52.4,235.5c1.241-1.8,3.679-1.781,5.295-1.529-2.061,1.32-4.908,5.809-5.655,12.359a84.963,84.963,0,0,0,.088,12.043c.115-.177,7.983-12.809,10.7-14.973,3.451-2.743,4.052-5.273,3.977-5.282-.528-.509-.821-.792-.976-.942l.02.008s9.395,8.006,8.965,10.769l-5.385,40.957c.1-.407-.168,2.455-2.093,2.573,0,0-6.413,1.834-9.432,1.847-4.724.023-13.036-6.641-13.036-6.641a4.2,4.2,0,0,1-.976-3.766l3.008-30.807c1.013-8.881,2.621-12.447,5.5-16.618" transform="translate(-17.69 -94.381)" fill="#282827"/>
                <path id="Path_671" data-name="Path 671" d="M52.4,235.5c1.241-1.8,3.679-1.781,5.295-1.529-2.061,1.32-4.908,5.809-5.655,12.359a72.554,72.554,0,0,0,.188,11.492c.115-.177,7.883-12.257,10.6-14.421,3.451-2.743,4.052-5.273,3.977-5.282-.528-.509-.821-.792-.976-.942l.02.008s9.687,7.853,9.155,9.891l-5.575,41.834c.1-.407-.168,2.455-2.093,2.573,0,0-6.413,1.834-9.432,1.847-4.724.023-13.036-6.641-13.036-6.641a4.2,4.2,0,0,1-.976-3.766l3.008-30.807c1.013-8.881,2.621-12.447,5.5-16.618" transform="translate(-17.69 -94.381)" fill="#282827"/>
                <path id="Path_672" data-name="Path 672" d="M65.191,234.287c3.4,3.936,6.506.121,9.112-2.526l1.27-10.145-9.33,1.972Z" transform="translate(-26.311 -89.443)" fill="#e8c5ac"/>
                <path id="Path_673" data-name="Path 673" d="M75.747,211.831a2.282,2.282,0,0,0-2.528,1.722l-.472,4.153a1.25,1.25,0,0,0,.756,1.164c1.152.373,1.778-.6,2.434-1.668.038-.061.9-1.653.95-1.748.735-1.349.816-3.4-1.139-3.623" transform="translate(-29.36 -85.486)" fill="#ffe8d9"/>
                <path id="Path_674" data-name="Path 674" d="M51.329,305.351l3.454-30.461a9.035,9.035,0,0,0,.761-.945l-3.627,31.793c-.2-.132-.4-.259-.589-.387" transform="translate(-20.716 -110.563)" fill="#383736"/>
                <path id="Path_675" data-name="Path 675" d="M60.641,249.749a2.3,2.3,0,0,0,.15-1.066l-.1-1.346,2.185-2.647.9.285.131,3.29-1.362,1.081a2.205,2.205,0,0,0-.706,1.269l-1.942,9.131L57.44,262.2l-.8-3.839Z" transform="translate(-22.86 -98.756)" fill="#160b01"/>
                <path id="Path_676" data-name="Path 676" d="M59.191,235.751l-.5-1.518s-.75.346-.914.457a9.156,9.156,0,0,0-1.5,1.929l-3.16,5.037a1.838,1.838,0,0,0,.211,2.086l1.3,2.06-1.741,1.451a1.953,1.953,0,0,0-.587,2.519l3.412,8.73s-.014-6.1.21-9.591a33.73,33.73,0,0,1,3.264-13.16" transform="translate(-21.024 -94.535)" fill="#7a797a"/>
                <path id="Path_677" data-name="Path 677" d="M65.214,240.017c.48.472.018,1-.3,1.366l-2.019,2.263c-.639.672-.8-.182-.736-.956l.641-5.6c.716-3.465,1.825-2.9,1.825-2.9a2,2,0,0,1-.009,1.048c-.235,1.189-1.026,3.172.6,4.777" transform="translate(-25.079 -94.505)" fill="#fff"/>
                <path id="Path_678" data-name="Path 678" d="M75.488,234.47a2.132,2.132,0,0,1-.366,1.4c-1.953,3.123-7.065,4.479-7.065,4.479-.61.156-.616.445-.63,1.446l.187,3.683c-.011.963.5.919.916.568,0,0,4.18-2.884,5.374-3.877,2.8-2.334,2.851-2.172,2.241-5.564-.369-2.047-.657-2.136-.657-2.136" transform="translate(-27.213 -94.631)" fill="#fff"/>
                <path id="Path_679" data-name="Path 679" d="M72.059,238.063l1.248,1.886a6.1,6.1,0,0,1,.434.78,1.789,1.789,0,0,1-.191,1.346l-3.171,5.787c-.473,1.183-.964,1.539-1.9,1.508l-3.3.035.937,2.619c.434,1.137.219,1.384-.329,1.944l-8.619,6.518a52.409,52.409,0,0,1,7.4-12.313c1.938-2.476,7.488-10.11,7.488-10.11" transform="translate(-23.073 -96.081)" fill="#7a797a"/>
                <path id="Path_680" data-name="Path 680" d="M76.87,198.529l0,0,6.225,5.089-9.036,11.354c-.708.7-1.245,1.426-1.9,1.979a4.076,4.076,0,0,1-3,.958s-2.421.055-4.453-.131c-1.2-.109-2.683-.366-3.339-1.913a27.393,27.393,0,0,1-1.159-2.739,8.758,8.758,0,0,1-.234-3.351,7.8,7.8,0,0,1,1.6-3.663l5.3-7.546,3.206-4.547Z" transform="translate(-24.185 -78.306)" fill="#ffe1cc"/>
                <path id="Path_681" data-name="Path 681" d="M77.27,190.392c-2.55-.437-3.742,2.151-5.556,5.348a6.97,6.97,0,0,0-.6,1.8c-.051,0,1.13-1.548,1.809-2.467,1.014-1.371,3.188-1.025,3.617-.234.837,1.542,3.43,6.481,3.663,7.1.663,1.784-.563,3.75-1.418,4.685l-.8.985c-.414.512-.975,1.028-.426,1.379.582.373.7.131,1.295-.3,0,0,2.151-1.179,3.395.163,1.063,1.148-2.114,3.227-2.3,3.314l-3.385,3.384c.168.075.782.243,2.405-.558,2.993-1.477,4.853-2.361,5.742-2.825,10.244-5.363,8.619-16.937-1.116-20.9-1.818-.738-6.328-.884-6.328-.884" transform="translate(-28.702 -76.822)" fill="#bf9243"/>
                <path id="Path_682" data-name="Path 682" d="M85.556,220.493a2.284,2.284,0,0,0-3.057.1l-2.63,3.247a1.251,1.251,0,0,0,.014,1.387c.768.933,1.818.452,2.947-.1.064-.03,1.647-.911,1.742-.964,1.347-.741,2.516-2.428.985-3.669" transform="translate(-32.148 -88.765)" fill="#ffe8d9"/>
                <path id="Path_683" data-name="Path 683" d="M80.868,320.017c-.217,1.351-2.185,1.942-3.415,1.74-.429-.068-1.644,3.11-3.39,2.708,0,0,.146-.883.459-2.417a3.315,3.315,0,0,1,1-2.269c2.528-2.11,2.848-2.537,4.078-2.338s1.488,1.224,1.27,2.575" transform="translate(-29.891 -128.1)" fill="#ffe8d9"/>
                <path id="Path_684" data-name="Path 684" d="M96.035,353.857a1.261,1.261,0,0,1-.329.678Z" transform="translate(-38.627 -142.815)" fill="#6d320a"/>
                <path id="Path_685" data-name="Path 685" d="M96.691,340.125a31.2,31.2,0,0,0,7.466-13.489l-.142,1.281-.245.771a31.989,31.989,0,0,1-7.2,12.519Z" transform="translate(-38.975 -131.829)" fill="#6d320a"/>
                <path id="Path_686" data-name="Path 686" d="M73.222,363.771a1.272,1.272,0,0,1-.329.678Z" transform="translate(-29.419 -146.816)" fill="#6d320a"/>
                <path id="Path_687" data-name="Path 687" d="M53.358,377.556l-6.189-4.608a1.07,1.07,0,0,1-.333-1.026l6.189,4.608a1.07,1.07,0,0,0,.333,1.026" transform="translate(-18.898 -150.106)" fill="#723919"/>
                <path id="Path_688" data-name="Path 688" d="M59.33,340.079l-.143,1.281.069.635c.44,3.551,2.291,5.951,5.059,6.839,0,0,6-.177,7.944-1.019a58.75,58.75,0,0,0,5.7-3.423l2.72-2.318a32,32,0,0,0,7.2-12.519l.245-.771-1.976,17.76a3.358,3.358,0,0,1-1.814,2.451l-25.7,11.169c-.9.389-1.532-.08-1.424-1.044Z" transform="translate(-23.086 -132.696)" fill="#8c532c"/>
                <path id="Path_689" data-name="Path 689" d="M56.545,344.815l-6.191-4.608.024-.211,6.188,4.608Z" transform="translate(-20.323 -137.221)" fill="#5c361d"/>
                <path id="Path_690" data-name="Path 690" d="M60.652,348.076c.283,3.914,2.189,6.557,5.132,7.5a.682.682,0,0,0-.02.109l-.106.939c-2.768-.887-4.619-3.288-5.059-6.839l-.069-.635Z" transform="translate(-24.43 -140.482)" fill="#6d320a"/>
                <path id="Path_691" data-name="Path 691" d="M89.693,326.636a31.2,31.2,0,0,1-7.466,13.489l.026-.225c.042-.384-.215-.571-.573-.416l-1.5.655a1.336,1.336,0,0,0-.726.977l-.191,1.71a24.9,24.9,0,0,1-5.417,3.222A13.7,13.7,0,0,1,68.48,347.3l.165-1.486c.041-.383-.212-.572-.569-.418l-1.505.655a1.361,1.361,0,0,0-.7.868c-2.943-.939-4.849-3.583-5.133-7.5l.022-.211,9.049-3.93,1.32-.576,8.144-3.538,1.322-.574Z" transform="translate(-24.512 -131.829)" fill="#a5683d"/>
                <path id="Path_692" data-name="Path 692" d="M77.892,318.907l6.188,4.61L55.141,336.093,55,337.375l-1.975,17.759a1.068,1.068,0,0,0,.333,1.026l-6.189-4.608a1.071,1.071,0,0,1-.333-1.026l2.118-19.041Z" transform="translate(-18.898 -128.709)" fill="#6d3b18"/>
                <path id="Path_693" data-name="Path 693" d="M73.721,358.137a13.74,13.74,0,0,0,5.363-1.252,24.981,24.981,0,0,0,5.419-3.224l.614.235-.2.456a30.625,30.625,0,0,1-5.955,3.583,13.7,13.7,0,0,1-5.364,1.252Z" transform="translate(-29.706 -142.736)" fill="#6d320a"/>
                <path id="Path_694" data-name="Path 694" d="M69.647,363.421l-.16,1.433a.382.382,0,0,0,.12.362l-.249-.185a.372.372,0,0,1-.118-.36l.159-1.434Z" transform="translate(-27.943 -146.601)" fill="#75460d"/>
                <path id="Path_695" data-name="Path 695" d="M69.758,362.745l-.248-.184,2.3-1,.248.184Z" transform="translate(-28.054 -145.924)" fill="#eb921a"/>
                <path id="Path_696" data-name="Path 696" d="M72.114,361.87l-.158,1.434a1.178,1.178,0,0,1-.638.861l-1.161.506c-.314.136-.539-.03-.5-.368l.16-1.433Z" transform="translate(-28.111 -146.049)" fill="#d87a13"/>
                <path id="Path_697" data-name="Path 697" d="M69.619,358.517l1.5-.654a.448.448,0,0,1,.44.006l.494.371a.437.437,0,0,0-.438-.007l-1.5.653a1.362,1.362,0,0,0-.725.979L69.2,361.6l-.494-.369.191-1.737a1.371,1.371,0,0,1,.725-.98" transform="translate(-27.728 -144.41)" fill="#89550f"/>
                <path id="Path_698" data-name="Path 698" d="M71.952,358.483c.358-.156.612.029.568.416l-.191,1.738-2.8,1.215.194-1.737a1.337,1.337,0,0,1,.725-.979Z" transform="translate(-28.062 -144.66)" fill="#f99b1c"/>
                <path id="Path_699" data-name="Path 699" d="M92.7,353.672l-.16,1.43a.378.378,0,0,0,.117.364l-.247-.184a.377.377,0,0,1-.119-.361l.159-1.433Z" transform="translate(-37.247 -142.666)" fill="#75460d"/>
                <path id="Path_700" data-name="Path 700" d="M92.811,353l-.249-.184,2.3-1,.248.184Z" transform="translate(-37.358 -141.99)" fill="#eb921a"/>
                <path id="Path_701" data-name="Path 701" d="M95.168,352.121l-.161,1.433a1.168,1.168,0,0,1-.636.862l-1.162.506c-.311.134-.537-.029-.5-.372l.159-1.43Z" transform="translate(-37.415 -142.114)" fill="#d87a13"/>
                <path id="Path_702" data-name="Path 702" d="M92.669,348.768l1.5-.655a.422.422,0,0,1,.437.008l.5.369a.432.432,0,0,0-.438-.009l-1.5.655a.961.961,0,0,0-.2.12.256.256,0,0,0-.038.027,1.361,1.361,0,0,0-.488.832l-.2,1.738-.5-.369.193-1.738a1.364,1.364,0,0,1,.725-.978" transform="translate(-37.03 -140.474)" fill="#89550f"/>
                <path id="Path_703" data-name="Path 703" d="M95,348.731c.36-.155.613.032.569.417l-.193,1.737-2.8,1.218.2-1.738a1.336,1.336,0,0,1,.725-.979Z" transform="translate(-37.366 -140.724)" fill="#f99b1c"/>
              </g>
            </g>
            <g id="Group_1821" data-name="Group 1821" transform="translate(40.737 199.45)">
              <g id="Group_1820" data-name="Group 1820" clip-path="url(#clip-path-3)">
                <path id="Path_704" data-name="Path 704" d="M68.565,334.757l-.072.614a.39.39,0,0,1-.188-.336l.073-.614a.379.379,0,0,0,.187.336" transform="translate(-68.304 -334.42)" fill="#f99b1c"/>
              </g>
            </g>
            <g id="Group_1823" data-name="Group 1823" transform="translate(44.948 200.898)">
              <g id="Group_1822" data-name="Group 1822" clip-path="url(#clip-path-4)">
                <path id="Path_706" data-name="Path 706" d="M75.692,336.849l-.072.615a.371.371,0,0,1-.255.28l.071-.612a.377.377,0,0,0,.256-.283" transform="translate(-75.365 -336.849)" fill="#ea921a"/>
              </g>
            </g>
            <g id="Group_1825" data-name="Group 1825">
              <g id="Group_1824" data-name="Group 1824" clip-path="url(#clip-path)">
                <path id="Path_708" data-name="Path 708" d="M74.909,337.323l-.071.612-.778.342.072-.615Z" transform="translate(-29.89 -136.142)" fill="#ea921a"/>
                <path id="Path_709" data-name="Path 709" d="M70.873,336.6l-.07.614L68.621,335.6l.072-.614Z" transform="translate(-27.695 -135.198)" fill="#ffc585"/>
              </g>
            </g>
            <g id="Group_1827" data-name="Group 1827" transform="translate(43.108 201.399)">
              <g id="Group_1826" data-name="Group 1826" clip-path="url(#clip-path-6)">
                <path id="Path_710" data-name="Path 710" d="M73.414,337.81l-.072.615a1.177,1.177,0,0,1-1.062-.121l.07-.614a1.176,1.176,0,0,0,1.064.12" transform="translate(-72.28 -337.689)" fill="#f99b1c"/>
              </g>
            </g>
            <g id="Group_1829" data-name="Group 1829">
              <g id="Group_1828" data-name="Group 1828" clip-path="url(#clip-path)">
                <path id="Path_712" data-name="Path 712" d="M72.7,335.064a.327.327,0,0,1-.069.616l-.777.339a1.178,1.178,0,0,1-1.064-.12l-2.18-1.614c-.275-.2-.246-.482.063-.617l.779-.342a1.185,1.185,0,0,1,1.065.123Z" transform="translate(-27.616 -134.499)" fill="#ffb255"/>
              </g>
            </g>
            <g id="Group_1831" data-name="Group 1831" transform="translate(50.167 195.285)">
              <g id="Group_1830" data-name="Group 1830" clip-path="url(#clip-path-8)">
                <path id="Path_713" data-name="Path 713" d="M84.379,327.775l-.072.614a.384.384,0,0,1-.188-.337l.072-.613a.383.383,0,0,0,.189.336" transform="translate(-84.117 -327.438)" fill="#f99b1c"/>
              </g>
            </g>
            <g id="Group_1833" data-name="Group 1833" transform="translate(54.38 196.735)">
              <g id="Group_1832" data-name="Group 1832" clip-path="url(#clip-path-9)">
                <path id="Path_715" data-name="Path 715" d="M91.5,329.869l-.071.612a.375.375,0,0,1-.255.281l.073-.613a.371.371,0,0,0,.253-.28" transform="translate(-91.179 -329.869)" fill="#ea921a"/>
              </g>
            </g>
            <g id="Group_1835" data-name="Group 1835">
              <g id="Group_1834" data-name="Group 1834" clip-path="url(#clip-path)">
                <path id="Path_717" data-name="Path 717" d="M90.726,330.339l-.073.613-.778.344.07-.616Z" transform="translate(-36.273 -133.323)" fill="#ea921a"/>
                <path id="Path_718" data-name="Path 718" d="M86.688,329.617l-.07.614-2.182-1.614.072-.614Z" transform="translate(-34.078 -132.381)" fill="#ffc585"/>
              </g>
            </g>
            <g id="Group_1837" data-name="Group 1837" transform="translate(52.54 197.236)">
              <g id="Group_1836" data-name="Group 1836" clip-path="url(#clip-path-11)">
                <path id="Path_719" data-name="Path 719" d="M89.227,330.828l-.07.615a1.189,1.189,0,0,1-1.062-.122l.07-.614a1.17,1.17,0,0,0,1.062.12" transform="translate(-88.095 -330.708)" fill="#f99b1c"/>
              </g>
            </g>
            <g id="Group_1839" data-name="Group 1839">
              <g id="Group_1838" data-name="Group 1838" clip-path="url(#clip-path)">
                <path id="Path_721" data-name="Path 721" d="M88.516,328.079c.275.206.247.481-.064.617l-.781.341a1.167,1.167,0,0,1-1.062-.12l-2.18-1.613c-.279-.205-.247-.482.063-.616l.778-.344a1.181,1.181,0,0,1,1.065.123Z" transform="translate(-33.998 -131.68)" fill="#ffb255"/>
                <path id="Path_722" data-name="Path 722" d="M84.571,325.788l.99.737a2.355,2.355,0,0,1,.868,1.677l-.993-.736a2.326,2.326,0,0,0-.865-1.678" transform="translate(-34.132 -131.487)" fill="#8c532c"/>
              </g>
            </g>
            <g id="Group_1841" data-name="Group 1841" transform="translate(50.439 194.302)">
              <g id="Group_1840" data-name="Group 1840" clip-path="url(#clip-path-13)">
                <path id="Path_723" data-name="Path 723" d="M86.429,328.2l-.993-.736a2.328,2.328,0,0,0-.865-1.678l.99.737a2.355,2.355,0,0,1,.868,1.677" transform="translate(-84.571 -325.789)" fill="#8c532c"/>
              </g>
            </g>
            <g id="Group_1846" data-name="Group 1846">
              <g id="Group_1845" data-name="Group 1845" clip-path="url(#clip-path)">
                <path id="Path_725" data-name="Path 725" d="M79.779,323.107c-2.756-2.053-8.341,2.16-9.625,7.173l.99.74c1.283-5.006,6.866-9.231,9.627-7.175Z" transform="translate(-28.314 -130.19)" fill="#8c532c"/>
                <path id="Path_726" data-name="Path 726" d="M77.752,324.286c2.7-1.172,4.705-.029,4.848,2.548l-1.32.576c-.209-1.812-1.7-2.585-3.684-1.724a8.847,8.847,0,0,0-4.463,5.264l-1.32.574a11.558,11.558,0,0,1,5.938-7.238" transform="translate(-28.984 -130.695)" fill="#a5683d"/>
                <path id="Path_727" data-name="Path 727" d="M83.642,318.777l-3.545-.614-1.7,1.988-.431,2.684a2.536,2.536,0,0,1-.881,1.458c-.313.281-.861.765-.861.765s-.935,2.563,1.205,2.634a2.662,2.662,0,0,0,1.306-.35c.9.137,2.445.2,3.461.291,2.341.218,2.578-2.575,2.578-2.575l.488-2.674c.292-1.5,0-3.323-1.619-3.607" transform="translate(-30.681 -128.409)" fill="#ffe8d9"/>
                <path id="Path_728" data-name="Path 728" d="M83.246,292.7a4.742,4.742,0,0,0,2.36.117,2.364,2.364,0,0,0,1.7-1.371c1.051-3.3,8.2-14.079,8.812-18.335.676-4.675-4.549-17.624-4.549-17.624s-1.687-6.263-6.077-6.6c-4.31-.335-5.513,3.339-5.974,7.1-.363,2.956,6.509,16.989,6.509,16.989L79.19,289.753a6.314,6.314,0,0,0,4.056,2.949" transform="translate(-31.961 -100.44)" fill="#383736"/>
                <rect id="Rectangle_1004" data-name="Rectangle 1004" width="1.069" height="37.932" transform="translate(29.199 62.166)" fill="#b3b6b9"/>
                <path id="Path_729" data-name="Path 729" d="M50.736,109.043l-1.391-2.84a1.144,1.144,0,0,0-1.995,0l-1.393,2.84a1.042,1.042,0,0,0,1.416,1.385l-.012.665a1.045,1.045,0,1,0,2.09.035l.011-.636a1.044,1.044,0,0,0,1.275-1.449" transform="translate(-18.505 -42.627)" fill="#c60606"/>
                <path id="Path_730" data-name="Path 730" d="M58.88,32.623c0,18.018-13.181,32.624-29.44,32.624S0,50.641,0,32.623,13.184,0,29.44,0,58.88,14.606,58.88,32.623" transform="translate(0 0)" fill="#ea3939"/>
                <path id="Path_731" data-name="Path 731" d="M29.44,0C13.184,0,0,14.606,0,32.622a35.48,35.48,0,0,0,2.584,13.36,27.776,27.776,0,0,0,19.6,8.287c16.257,0,29.439-14.606,29.439-32.623a35.455,35.455,0,0,0-2.585-13.36A27.77,27.77,0,0,0,29.44,0" fill="#f95353"/>
                <g id="Group_1844" data-name="Group 1844" transform="translate(11.728 10.258)" opacity="0.44">
                  <g id="Group_1843" data-name="Group 1843">
                    <g id="Group_1842" data-name="Group 1842" clip-path="url(#clip-path-15)">
                      <path id="Path_732" data-name="Path 732" d="M29.477,26.306c-2.1,3.111-5.664,4.375-7.966,2.823s-2.477-5.332-.38-8.444,5.663-4.373,7.966-2.822,2.474,5.332.38,8.443" transform="translate(-19.664 -17.2)" fill="#ffe3e3"/>
                    </g>
                  </g>
                </g>
                <path id="Path_733" data-name="Path 733" d="M41.347,165.3a7.262,7.262,0,0,1,2.954-3.533c.128-.067.318-.444.647-.587.469-.205,1.164.157,1.741.5.861.508,1.848,1.954,1.077,2.524-.372.274-1.116-.352-1.468-.118-.83.555-1.683,2.368-2.6,3.249a1.239,1.239,0,0,1-1.908-.18,1.972,1.972,0,0,1-.36-.728,2.009,2.009,0,0,1-.08-1.127" transform="translate(-16.664 -65.026)" fill="#fff1e9"/>
                <path id="Path_734" data-name="Path 734" d="M51.812,171.6s1.563-2.413,1.34-3.917-5.465-2.429-5.074-.975c.5,1.845,3.211.855,2.848,1.8-.253.666-1.232.411-1.35,1.136-.239,1.48.255,4.578,2.236,1.952" transform="translate(-19.396 -66.987)" fill="#fff8f5"/>
                <path id="Path_735" data-name="Path 735" d="M53.425,287.415c-.088.706-.454,1.243-.816,1.2s-.584-.654-.5-1.362.454-1.243.816-1.2.584.655.5,1.363" transform="translate(-21.025 -115.448)" fill="#383736"/>
                <path id="Path_736" data-name="Path 736" d="M52.1,296.95c-.089.706-.453,1.243-.816,1.2s-.585-.656-.5-1.362.454-1.242.817-1.2.583.655.494,1.362" transform="translate(-20.488 -119.297)" fill="#383736"/>
                <path id="Path_737" data-name="Path 737" d="M50.764,307.815c-.088.706-.454,1.243-.816,1.2s-.584-.655-.5-1.36.454-1.243.816-1.2.584.655.5,1.362" transform="translate(-19.951 -123.682)" fill="#383736"/>
                <g id="Group_123" data-name="Group 123" transform="translate(21.013 25.429)">
                  <g id="Group_122" data-name="Group 122" transform="translate(0 0)" clip-path="url(#clip-path-16)">
                    <path id="Path_1" data-name="Path 1" d="M25.226,1.121V8.239A1.121,1.121,0,0,1,24.106,9.36h-3.88v-3.1A2.173,2.173,0,0,0,19.079,4.34h-.006a2.143,2.143,0,0,0-1.036-.266H15.86V1.121A1.117,1.117,0,0,1,16.981,0h7.125a1.121,1.121,0,0,1,1.121,1.121" transform="translate(-5.587 0)" fill="#fff"/>
                    <path id="Path_2" data-name="Path 2" d="M18.37,10.342v1.875a.582.582,0,0,1-.582.582H16.354a.5.5,0,0,1-.5-.5V10.342a.582.582,0,0,1,.582-.582h1.35a.582.582,0,0,1,.582.582" transform="translate(-5.586 -3.438)" fill="#fff"/>
                    <path id="Path_3" data-name="Path 3" d="M9.36,1.121V4.074H7.177A2.106,2.106,0,0,0,6.1,4.366a2.171,2.171,0,0,0-1.108,1.9v3.1H1.121A1.117,1.117,0,0,1,0,8.239V1.121A1.117,1.117,0,0,1,1.121,0H8.239A1.121,1.121,0,0,1,9.36,1.121" transform="translate(0 0)" fill="#fff"/>
                    <path id="Path_4" data-name="Path 4" d="M13.084,10.342V12.3a.5.5,0,0,1-.5.5H11.159a.582.582,0,0,1-.582-.582V10.342a.582.582,0,0,1,.582-.582H12.5a.582.582,0,0,1,.582.582" transform="translate(-3.726 -3.438)" fill="#fff"/>
                    <path id="Path_5" data-name="Path 5" d="M9.36,21.152v2.954a1.121,1.121,0,0,1-1.121,1.121H1.121A1.117,1.117,0,0,1,0,24.106V16.981A1.117,1.117,0,0,1,1.121,15.86H4.994v3.1a2.185,2.185,0,0,0,2.183,2.189Z" transform="translate(0 -5.587)" fill="#fff"/>
                    <path id="Path_6" data-name="Path 6" d="M13.084,16.357v1.966a.582.582,0,0,1-.582.582H11.159a.582.582,0,0,1-.582-.582V16.441a.581.581,0,0,1,.582-.581h1.428a.5.5,0,0,1,.5.5" transform="translate(-3.726 -5.587)" fill="#fff"/>
                    <path id="Path_7" data-name="Path 7" d="M25.226,16.981v7.125a1.121,1.121,0,0,1-1.121,1.121H16.981a1.117,1.117,0,0,1-1.121-1.121V21.152h2.176a2.187,2.187,0,0,0,2.189-2.189v-3.1h3.88a1.121,1.121,0,0,1,1.121,1.121" transform="translate(-5.587 -5.587)" fill="#fff"/>
                    <path id="Path_8" data-name="Path 8" d="M18.37,16.442v1.881a.582.582,0,0,1-.582.582h-1.35a.582.582,0,0,1-.582-.582V16.357a.5.5,0,0,1,.5-.5h1.434a.582.582,0,0,1,.582.582" transform="translate(-5.586 -5.587)" fill="#fff"/>
                    <path id="Path_9" data-name="Path 9" d="M7.425,11.734H6.9V9.143a2.6,2.6,0,0,1,1.632-2.4,2.171,2.171,0,0,0-1.108,1.9Z" transform="translate(-2.431 -2.374)" fill="#edeaea"/>
                    <path id="Path_10" data-name="Path 10" d="M9.607,21.152H11.79v1.2H9.5a2.608,2.608,0,0,1-2.6-2.6V15.86h.525v3.1a2.185,2.185,0,0,0,2.183,2.189" transform="translate(-2.431 -5.587)" fill="#edeaea"/>
                    <path id="Path_11" data-name="Path 11" d="M22.521,9.129V11.72h-.544v-3.1A2.173,2.173,0,0,0,20.83,6.7a2.591,2.591,0,0,1,1.691,2.429" transform="translate(-7.338 -2.36)" fill="#edeaea"/>
                    <path id="Path_12" data-name="Path 12" d="M20.226,15.86h.544v3.886a2.6,2.6,0,0,1-2.6,2.6H15.86v-1.2h2.176a2.187,2.187,0,0,0,2.189-2.189Z" transform="translate(-5.587 -5.587)" fill="#edeaea"/>
                  </g>
                </g>
              </g>
            </g>
          </g>
        </g>
        <g id="Group_1912" data-name="Group 1912" transform="translate(158.186 492)">
          <g id="Group_1911" data-name="Group 1911" clip-path="url(#clip-path-17)">
            <g id="Group_1853" data-name="Group 1853">
              <g id="Group_1852" data-name="Group 1852" clip-path="url(#clip-path-17)">
                <g id="Group_1851" data-name="Group 1851" opacity="0.29" style="mix-blend-mode: multiply;isolation: isolate">
                  <g id="Group_1850" data-name="Group 1850">
                    <g id="Group_1849" data-name="Group 1849" clip-path="url(#clip-path-19)">
                      <path id="Path_738" data-name="Path 738" d="M264.661,246.211c12.423,1.446,8.089,2.837,8.089,5.49,0,3.755,6.456,5.436,14.3,5.436,13.99,0,20.785-5.614,20.785-10.442s-8.641-9.619-22.634-9.619c-14.741,0-24,1.6-26.318,4.778-1.72,2.351,3.427,4.085,5.779,4.357" fill="#231f20"/>
                    </g>
                  </g>
                </g>
                <path id="Path_739" data-name="Path 739" d="M275.89,231.236l-.9,2.072s-8.556,3.542-9.081,3.827c-.6.323-1.922.892-1.719,2.04a1.325,1.325,0,0,0,.226.688,4.614,4.614,0,0,0,3.061,1.38c2.526.374,7.772-.544,7.772-.544a17.859,17.859,0,0,0,4.331-1.306s1.31-.43,1.56.033a3.751,3.751,0,0,1-.024,1.1l3.233-1.433a8.7,8.7,0,0,0,.456-2.42l-.254-4.705Z" fill="#231f20"/>
                <path id="Path_740" data-name="Path 740" d="M266.018,240.468a8.222,8.222,0,0,0,2.52.521c3.677.32,9.16-1.1,9.16-1.1.547-.144,2.6-.718,2.6-.718s.855.048.834.251c0-.1-.009-.011.037,0a4.644,4.644,0,0,1-.061,1.092l-.9-.538s-2.515.63-2.957.789a34.984,34.984,0,0,1-8.98,1.069c-1.168-.086-3.163-.719-3.9-1.781a1.266,1.266,0,0,1-.169-.99,6.144,6.144,0,0,0,1.816,1.4" fill="#282827"/>
                <path id="Path_741" data-name="Path 741" d="M281.136,239.427l3.529-1.723a12.324,12.324,0,0,1-.286,1.386l-3.23,1.44c.005-.114-.008-.811-.013-1.1" fill="#282827"/>
                <path id="Path_742" data-name="Path 742" d="M278.012,177.588l-3.249,53.478c-.259,1.827-1.319,2.417-.81,3.06,1.9,2.393,10.336,4.815,11.589.968l4.627-54.627Z" fill="#141413"/>
                <path id="Path_743" data-name="Path 743" d="M304.512,240.572s.167,5.232.178,5.354c.184,2.326-2.319,8.279-5.959,8.644a22.555,22.555,0,0,1-2.446-.133s-2.488-.093-2.021-4.811c.184-1.832,1.922-9.223,1.922-9.223Z" fill="#383736"/>
                <path id="Path_744" data-name="Path 744" d="M304.86,239.267s-.285,3-.52,6.911c-.141,2.328-2.74,7.253-5.949,7.444a10.115,10.115,0,0,1-1.54-.036c-1.384-.076-3.275-.62-2.511-5.424.275-1.715,1.4-8.325,1.5-8.329Z" fill="#231f20"/>
                <path id="Path_745" data-name="Path 745" d="M287.771,181.385c.643,9.465,6.54,61.307,6.54,61.307.1,1.33,3.944,2.861,3.944,2.861,4.7-.18,6.9-3.12,6.921-3.588l-.774-59.314Z" fill="#383736"/>
                <path id="Path_746" data-name="Path 746" d="M275.417,183.17l-3.883-1.5s-1.31.755-3.264,4.646a11.217,11.217,0,0,0-1.046,3.809s-.105,3.11,2.58,3.818a13.415,13.415,0,0,0,2.294-.288c.777-.627.879-1.918,1.284-2.879a39.457,39.457,0,0,1,2.306-3.745,3.486,3.486,0,0,0-.271-3.861" fill="#e8c5ac"/>
                <path id="Path_747" data-name="Path 747" d="M273.831,185.2a3.588,3.588,0,0,1-2.978,2.49c-.414.029-.515,2.5-1.068,3.453a1.089,1.089,0,0,1-1.791.209,41.984,41.984,0,0,1,.922-4.794c.62-3.094,1.814-3.515,3-3.588a1.783,1.783,0,0,1,1.911,2.23" fill="#ffe1cc"/>
                <path id="Path_748" data-name="Path 748" d="M272.664,186.281c3.509,1.663,4.439,1.225,4.439,1.225s5.482-12.4,7.129-18.544c1.17-4.368,3.694-16.935,3.694-16.935S291,141.1,286.672,138.668c-1.4-.788-4.46-1.188-6.291.079-1.192.824-2.675,4.7-3.059,7.436-.4,2.826-2.361,18.334-2.639,19.731a159.14,159.14,0,0,1-5.188,17.817,15.207,15.207,0,0,0,3.169,2.55" fill="#2c3133"/>
                <path id="Path_749" data-name="Path 749" d="M296.646,145.082s-2.44-4.305-4.671-5.166-9.409-.464-9.409-.464-3.828,8.333-3.863,8.9,1.779,15.561,1.779,15.561l9.571-7.6Z" fill="#d7dfe2"/>
                <path id="Path_750" data-name="Path 750" d="M280.54,139.607c1.1-1.78,3.438-1.879,4.994-1.713-1.907,1.361-4.421,5.79-4.829,12.09a82.1,82.1,0,0,0,.646,11.519c.1-.177,6.366-12.474,8.827-14.716.348-.316,3.693-6.809,3.693-6.809s8.871,7.3,9.719,8.834l-2.83,43.705c-.13.992.047,1.339-.984,1.807a40.5,40.5,0,0,1-11.249,1.312c-4.8-.155-12.491-3.255-12.491-3.255a.57.57,0,0,1-.337-.592l1.777-16.115c-.257-17.081.508-31.944,3.064-36.067" fill="#3d4244"/>
                <path id="Path_751" data-name="Path 751" d="M280.2,193.711l1.112-18.795-.3-13.078s.52-1.157.726-1.52l.051,14.5-1.04,19.092a2.806,2.806,0,0,1-.545-.194" fill="#383736"/>
                <path id="Path_752" data-name="Path 752" d="M283.7,142.825c3.436,3.6,6.891-.737,9.262-3.392l-.007-9.093-8.644,2.25Z" fill="#e8c5ac"/>
                <path id="Path_753" data-name="Path 753" d="M283.235,148.984a2.65,2.65,0,0,0,.256-1.127l-.249-1.269,1.746-2.58.907.176.509,2.921-1.241.993a1.892,1.892,0,0,0-.634,1.144l-.9,8.282-2.215,3.494a17.5,17.5,0,0,1-.764-3.48c.117-3.3,2.587-8.554,2.587-8.554" fill="#160b01"/>
                <path id="Path_754" data-name="Path 754" d="M283.847,139.536l-.551-1.429s-.695.372-.853.48a6.013,6.013,0,0,0-1.7,2.082c-.693,1.153-2.427,4.8-2.427,4.8a1.753,1.753,0,0,0,.3,1.985l1.343,1.7-1.381,1.093c-.9.608-.623,1.884-.348,2.777a82.7,82.7,0,0,0,3.18,7.989s-.553-5.669-.441-9.02a30.576,30.576,0,0,1,2.876-12.462" fill="#7a797a"/>
                <path id="Path_755" data-name="Path 755" d="M285.214,143.507c.476.433.064.957-.229,1.322l-1.829,2.26c-.579.671-.775-.137-.744-.883l.1-5.377c.267-2.817,1.492-3.028,1.492-3.028a13.95,13.95,0,0,0-.047,1.55c.031,1.159-.108,2.916,1.257,4.156" fill="#fff"/>
                <path id="Path_756" data-name="Path 756" d="M292.975,136.451a12.519,12.519,0,0,1-.525,2.6c-1.67,3.924-6.55,4.618-6.55,4.618-.574.177-.567.453-.532,1.413l.349,3.516c.036.919.518.855.9.5,0,0,3.864-2.956,4.957-3.96,2.576-2.364,2.924-4.136,2.221-7.362-.24-1.12-.825-1.326-.825-1.326" fill="#fff"/>
                <path id="Path_757" data-name="Path 757" d="M293.761,137.59l1.867,3.7a2.132,2.132,0,0,1,.223,1.438,9.34,9.34,0,0,1-.421,1.629l-2.342,4.853c-.4,1.155-.849,1.521-1.744,1.535l-3.158.189.972,2.27c.333.728.064,1.119-.56,1.536-6.457,4.321-7.56,7.169-7.56,7.169s-.016-3.121,5.475-11.8c1.4-2.213,3.8-5.354,5.5-7.893,2.216-3.305,1.748-4.626,1.748-4.626" fill="#7a797a"/>
                <path id="Path_758" data-name="Path 758" d="M295.15,119.258l0,0,6.036,4.172L293.8,134.419c-.6.692-1.03,1.388-1.586,1.939a3.74,3.74,0,0,1-2.661,1.093s-1.621-.124-3.483-.144c-1.1-.011-3.928-.8-4.638-2.158-.4-.768-1.5-1.295-.826-4.428.043-.19,1.106-2.733,1.481-3.406l3.975-7.291,2.584-4.369Z" fill="#ffe1cc"/>
                <path id="Path_759" data-name="Path 759" d="M290.415,114.167c-2.149.225-3.122,3.936-3.1,3.913.917-1.258,2.823-1.165,3.273-.477.873,1.339,3.594,5.642,3.852,6.192.734,1.572-.242,3.449-.95,4.364l-.653.955c-.34.495-.811,1.007-.288,1.286.555.3.646.069,1.154-.364,0,0,1.873-1.228,3.1-.1,1.048.966-1.688,3.088-1.851,3.181l-2.832,3.325c.159.055.731.164,2.148-.682,2.614-1.562,4.241-2.5,5.015-2.992,8.923-5.625,6.6-16.033-2.542-18.918-1.709-.541-6.325.315-6.325.315" fill="#a89678"/>
                <path id="Path_760" data-name="Path 760" d="M296.648,129.666a2.083,2.083,0,0,0-2.772.312l-2.157,3.146a1.143,1.143,0,0,0,.114,1.262c.768.792,1.688.279,2.674-.306.057-.03,1.431-.949,1.513-1,1.171-.773,2.11-2.4.628-3.412" fill="#ffe1cc"/>
                <path id="Path_761" data-name="Path 761" d="M305.415,195.892c.072,1.334-1.683,2.308-2.9,2.371-.422.024-.92,3.307-2.667,3.286,0,0-.044-.87-.068-2.4a3.256,3.256,0,0,1,.481-2.37c1.973-2.539,2.189-3.015,3.4-3.082s1.673.862,1.747,2.193" fill="#e8c5ac"/>
                <path id="Path_762" data-name="Path 762" d="M311.567,213.142a1.129,1.129,0,0,1-.255.6Z" fill="#6d320a"/>
                <path id="Path_763" data-name="Path 763" d="M311.718,210.744a27.155,27.155,0,0,0,5.91-12.033l-.069,1.121-.18.678a27.84,27.84,0,0,1-5.721,11.18Z" fill="#6d320a"/>
                <path id="Path_764" data-name="Path 764" d="M300,218.856a1.141,1.141,0,0,1-.255.6Z" fill="#6d320a"/>
                <path id="Path_765" data-name="Path 765" d="M292.333,228.369l-5.572-3.74a.934.934,0,0,1-.332-.879L292,227.492a.926.926,0,0,0,.332.877" fill="#723919"/>
                <path id="Path_766" data-name="Path 766" d="M293.028,210.866l-.069,1.117.088.548c.535,3.065,2.242,5.071,4.685,5.725,0,0,5.206-.41,6.854-1.224a50.62,50.62,0,0,0,4.807-3.213l2.265-2.129a27.854,27.854,0,0,0,5.721-11.18l.179-.678-.959,15.506a2.934,2.934,0,0,1-1.474,2.207l-21.843,10.794c-.762.376-1.335-.006-1.281-.847Z" fill="#8c532c"/>
                <path id="Path_767" data-name="Path 767" d="M293.018,211.049l-5.572-3.739.011-.183,5.571,3.739Z" fill="#5c361d"/>
                <path id="Path_768" data-name="Path 768" d="M293.018,211.049c.413,3.388,2.179,5.6,4.778,6.292a.528.528,0,0,0-.013.1l-.051.818c-2.443-.653-4.15-2.66-4.685-5.725l-.089-.547Z" fill="#6d320a"/>
                <path id="Path_769" data-name="Path 769" d="M317.628,198.711a27.155,27.155,0,0,1-5.91,12.033l.012-.2c.019-.334-.211-.485-.514-.336l-1.28.633a1.158,1.158,0,0,0-.589.881l-.092,1.491a21.673,21.673,0,0,1-4.568,3.028,11.887,11.887,0,0,1-4.606,1.316l.081-1.3c.02-.333-.21-.489-.512-.338l-1.278.632a1.18,1.18,0,0,0-.576.785c-2.6-.691-4.364-2.9-4.777-6.292l.009-.183,7.693-3.8,1.124-.554,6.921-3.423,1.123-.554Z" fill="#a5683d"/>
                <path id="Path_770" data-name="Path 770" d="M312.057,194.971l5.571,3.74-24.6,12.156-.07,1.117L292,227.493a.925.925,0,0,0,.332.876l-5.572-3.74a.938.938,0,0,1-.332-.879l1.028-16.623Z" fill="#6d3b18"/>
                <path id="Path_771" data-name="Path 771" d="M300.119,217.5a11.92,11.92,0,0,0,4.6-1.314,21.708,21.708,0,0,0,4.57-3.031l.544.179-.15.4a26.476,26.476,0,0,1-5.021,3.365,11.9,11.9,0,0,1-4.606,1.316Z" fill="#6d320a"/>
                <path id="Path_772" data-name="Path 772" d="M298.173,218.828l-.077,1.252a.319.319,0,0,0,.119.309l-.225-.151a.32.32,0,0,1-.116-.306l.077-1.252Z" fill="#75460d"/>
                <path id="Path_773" data-name="Path 773" d="M298.173,218.828l-.222-.148,1.954-.965.222.148Z" fill="#eb921a"/>
                <path id="Path_774" data-name="Path 774" d="M300.127,217.863l-.076,1.251a1.024,1.024,0,0,1-.518.776l-.987.49c-.267.13-.468,0-.45-.3l.077-1.252Z" fill="#d87a13"/>
                <path id="Path_775" data-name="Path 775" d="M298.219,216.465l1.278-.632a.383.383,0,0,1,.383-.014l.444.3a.377.377,0,0,0-.38.011l-1.279.632a1.181,1.181,0,0,0-.587.88l-.092,1.516-.447-.3.092-1.517a1.2,1.2,0,0,1,.588-.881" fill="#89550f"/>
                <path id="Path_776" data-name="Path 776" d="M299.943,216.133c.307-.15.535,0,.513.337l-.094,1.518-2.377,1.173.093-1.516a1.158,1.158,0,0,1,.587-.88Z" fill="#f99b1c"/>
                <path id="Path_777" data-name="Path 777" d="M309.865,213.191l-.076,1.252a.327.327,0,0,0,.117.31l-.222-.148a.331.331,0,0,1-.119-.309l.079-1.251Z" fill="#75460d"/>
                <path id="Path_778" data-name="Path 778" d="M309.865,213.191l-.221-.146,1.953-.965.224.148Z" fill="#eb921a"/>
                <path id="Path_779" data-name="Path 779" d="M311.821,212.228l-.077,1.251a1.035,1.035,0,0,1-.518.776l-.988.488c-.264.13-.467,0-.449-.3l.076-1.252Z" fill="#d87a13"/>
                <path id="Path_780" data-name="Path 780" d="M309.915,210.829l1.276-.63a.372.372,0,0,1,.382-.013l.446.3a.377.377,0,0,0-.381.014l-1.279.633a.863.863,0,0,0-.167.113l-.032.022a1.21,1.21,0,0,0-.388.745l-.094,1.517-.446-.3.1-1.516a1.19,1.19,0,0,1,.588-.882" fill="#89550f"/>
                <path id="Path_781" data-name="Path 781" d="M311.638,210.5c.3-.151.533,0,.512.338l-.093,1.517-2.379,1.175.1-1.517a1.156,1.156,0,0,1,.587-.88Z" fill="#f99b1c"/>
              </g>
            </g>
            <g id="Group_1855" data-name="Group 1855">
              <g id="Group_1854" data-name="Group 1854" clip-path="url(#clip-path-20)">
                <path id="Path_782" data-name="Path 782" d="M296.837,204.064l-.037.537a.338.338,0,0,1-.178-.286l.035-.536a.332.332,0,0,0,.18.285" fill="#f99b1c"/>
              </g>
            </g>
            <g id="Group_1857" data-name="Group 1857">
              <g id="Group_1856" data-name="Group 1856" clip-path="url(#clip-path-21)">
                <path id="Path_784" data-name="Path 784" d="M300.6,204.85l-.036.535a.322.322,0,0,1-.209.255l.036-.536a.318.318,0,0,0,.209-.254" fill="#ea921a"/>
              </g>
            </g>
            <g id="Group_1859" data-name="Group 1859">
              <g id="Group_1858" data-name="Group 1858" clip-path="url(#clip-path-17)">
                <path id="Path_786" data-name="Path 786" d="M300.388,205.1l-.036.536-.662.331.036-.536Z" fill="#ea921a"/>
                <path id="Path_787" data-name="Path 787" d="M298.8,205.373l-.036.535L296.8,204.6l.037-.538Z" fill="#ffc585"/>
              </g>
            </g>
            <g id="Group_1861" data-name="Group 1861">
              <g id="Group_1860" data-name="Group 1860" clip-path="url(#clip-path-23)">
                <path id="Path_788" data-name="Path 788" d="M299.726,205.434l-.036.536a1.029,1.029,0,0,1-.928-.062l.036-.535a1.026,1.026,0,0,0,.928.061" fill="#f99b1c"/>
              </g>
            </g>
            <g id="Group_1863" data-name="Group 1863">
              <g id="Group_1862" data-name="Group 1862" clip-path="url(#clip-path-17)">
                <path id="Path_790" data-name="Path 790" d="M300.419,204.567c.249.166.235.4-.031.536l-.662.331a1.026,1.026,0,0,1-.928-.061l-1.961-1.309c-.251-.166-.235-.409.027-.538l.663-.331a1.028,1.028,0,0,1,.928.063Z" fill="#ffb255"/>
              </g>
            </g>
            <g id="Group_1865" data-name="Group 1865">
              <g id="Group_1864" data-name="Group 1864" clip-path="url(#clip-path-25)">
                <path id="Path_791" data-name="Path 791" d="M304.85,200.048l-.037.534a.336.336,0,0,1-.177-.284l.036-.536a.336.336,0,0,0,.178.286" fill="#f99b1c"/>
              </g>
            </g>
            <g id="Group_1867" data-name="Group 1867">
              <g id="Group_1866" data-name="Group 1866" clip-path="url(#clip-path-26)">
                <path id="Path_793" data-name="Path 793" d="M308.61,200.832l-.036.535a.318.318,0,0,1-.209.254l.037-.536a.324.324,0,0,0,.208-.253" fill="#ea921a"/>
              </g>
            </g>
            <g id="Group_1869" data-name="Group 1869">
              <g id="Group_1868" data-name="Group 1868" clip-path="url(#clip-path-17)">
                <path id="Path_795" data-name="Path 795" d="M308.4,201.085l-.037.536-.661.332.035-.537Z" fill="#ea921a"/>
                <path id="Path_796" data-name="Path 796" d="M306.813,201.355l-.036.537-1.964-1.31.037-.535Z" fill="#ffc585"/>
              </g>
            </g>
            <g id="Group_1871" data-name="Group 1871">
              <g id="Group_1870" data-name="Group 1870" clip-path="url(#clip-path-28)">
                <path id="Path_797" data-name="Path 797" d="M307.739,201.416l-.035.537a1.031,1.031,0,0,1-.928-.06l.036-.538a1.026,1.026,0,0,0,.927.061" fill="#f99b1c"/>
              </g>
            </g>
            <g id="Group_1873" data-name="Group 1873">
              <g id="Group_1872" data-name="Group 1872" clip-path="url(#clip-path-17)">
                <path id="Path_799" data-name="Path 799" d="M308.434,200.549c.248.166.234.4-.031.536l-.663.331a1.026,1.026,0,0,1-.927-.06l-1.963-1.308c-.249-.168-.234-.408.028-.54l.664-.329a1.029,1.029,0,0,1,.93.058Z" fill="#ffb255"/>
                <path id="Path_800" data-name="Path 800" d="M304.8,198.9l.893.6a2.029,2.029,0,0,1,.824,1.417l-.892-.6a2.029,2.029,0,0,0-.825-1.419" fill="#8c532c"/>
              </g>
            </g>
            <g id="Group_1875" data-name="Group 1875">
              <g id="Group_1874" data-name="Group 1874" clip-path="url(#clip-path-30)">
                <path id="Path_801" data-name="Path 801" d="M306.517,200.916l-.892-.6a2.033,2.033,0,0,0-.825-1.419l.894.6a2.03,2.03,0,0,1,.823,1.417" fill="#8c532c"/>
              </g>
            </g>
            <g id="Group_1880" data-name="Group 1880">
              <g id="Group_1879" data-name="Group 1879" clip-path="url(#clip-path-17)">
                <path id="Path_803" data-name="Path 803" d="M305.635,197.654c-2.48-1.667-7.153,2.23-8.056,6.639l.891.6c.9-4.4,5.572-8.308,8.058-6.638Z" fill="#8c532c"/>
                <path id="Path_804" data-name="Path 804" d="M303.32,198.354c2.294-1.134,4.085-.228,4.318,2.008l-1.122.554c-.257-1.564-1.588-2.173-3.272-1.34a7.689,7.689,0,0,0-3.651,4.761l-1.124.554a10.059,10.059,0,0,1,4.851-6.537" fill="#a5683d"/>
                <path id="Path_805" data-name="Path 805" d="M306.984,194l-3.508.151-1.316.436.253,4.464a2.477,2.477,0,0,1-.534,1.572c-.242.336-.666.909-.666.909s-.358,2.638,1.7,2.262a2.575,2.575,0,0,0,1.17-.606c.888-.057,2.377-.32,3.365-.443,2.279-.277,1.924-2.988,1.924-2.988l-.09-2.656c-.034-1.488-.689-3.168-2.295-3.1" fill="#ffe1cc"/>
                <path id="Path_806" data-name="Path 806" d="M306.041,196.6a4.625,4.625,0,0,0,2.278-.377,2.311,2.311,0,0,0,1.333-1.662c.317-3.363.554-18.112.251-22.3-.328-4.6-3.019-16.514-3.019-16.514.01.071-1.268-8.693-6.279-8.229-4.2.388-4.563,4.328-4.224,8.009.266,2.9,3.943,18.572,3.943,18.572l1.238,20.532a6.16,6.16,0,0,0,4.479,1.968" fill="#585e60"/>
                <path id="Path_807" data-name="Path 807" d="M60.564,60.758A32.776,32.776,0,0,1,50.189,69.1c-1.289.7-5.228-.34-6.9-2.367-.217-.26-6.071-8.6-6.762-9.359-2.094-2.3-.288-5.256-.288-5.256s-6.65-6.849-3.666-8.845c2.724-1.829,6.326,2.138,7.128,3.539,1.29,2.261,7.984,12.363,9.254,12.084,2.877-.624,7.393-5.661,7.393-5.661a3.863,3.863,0,0,1,3.56,1.634c.878,1.238,2,4.157.659,5.894" fill="#3a3e3f"/>
                <path id="Path_808" data-name="Path 808" d="M56,53.957s.7-1.066,1.884.067a9.225,9.225,0,0,1,2.569,4.615c.2,1.215-.005,1.78-.787,2.013-.809.243-2.747-1.527-3.289-2.986s-1-3.25-.377-3.709" fill="#d6eae9"/>
                <path id="Path_809" data-name="Path 809" d="M55.854,54.59a37.3,37.3,0,0,1,2.258-3.145c1.249-1.165,3.527-1.424,4.809-2.74a8.252,8.252,0,0,0,1.023-1.344s1.619.434.994,1.81A3.84,3.84,0,0,1,62.514,51.4a30.335,30.335,0,0,0,6.543.04c1.9-.354,1.829-.833,2.409-.692a1.817,1.817,0,0,1,.875,2.207,6.855,6.855,0,0,1-5.3,4.02,28.948,28.948,0,0,1-6.376.126l-3.4,1.551Z" fill="#f2c8a5"/>
                <path id="Path_810" data-name="Path 810" d="M56.429,53.565s-.775.59.392,3.175a14.67,14.67,0,0,0,1.906,3.339A1.347,1.347,0,0,0,60,60.515c-.027.05-1.159.526-1.159.526s-1.539.013-2.914-3.781a6.048,6.048,0,0,1-.563-2.9Z" fill="#fff"/>
                <g id="Group_1878" data-name="Group 1878" opacity="0.29" style="mix-blend-mode: multiply;isolation: isolate">
                  <g id="Group_1877" data-name="Group 1877">
                    <g id="Group_1876" data-name="Group 1876" clip-path="url(#clip-path-32)">
                      <path id="Path_811" data-name="Path 811" d="M51.705,150.524c-12.337,1.436-8.034,2.821-8.034,5.453,0,3.731-7.211,6.524-15,6.524-13.891,0-18.864-6.524-18.864-11.319s10.775-9,24.668-9c14.64,0,22.1.884,24.4,4.037,1.706,2.336-4.838,4.033-7.173,4.3" fill="#231f20"/>
                    </g>
                  </g>
                </g>
                <path id="Path_812" data-name="Path 812" d="M41.448,135.656l.9,2.057s8.5,3.52,9.018,3.8c.6.322,1.909.888,1.707,2.025a1.333,1.333,0,0,1-.223.686,4.591,4.591,0,0,1-3.041,1.368c-2.51.374-7.717-.541-7.717-.541a17.48,17.48,0,0,1-4.3-1.3s-1.3-.426-1.551.034a3.81,3.81,0,0,0,.024,1.088l-3.21-1.424a8.609,8.609,0,0,1-.452-2.4l.251-4.671Z" fill="#231f20"/>
                <path id="Path_813" data-name="Path 813" d="M51.249,144.825a8.181,8.181,0,0,1-2.5.516c-3.653.315-9.1-1.088-9.1-1.088-.543-.142-2.588-.712-2.588-.712s-.847.049-.826.248c0-.1.01-.011-.035,0a4.635,4.635,0,0,0,.059,1.086l.9-.534s2.5.627,2.936.784a34.736,34.736,0,0,0,8.918,1.062c1.16-.087,3.14-.715,3.872-1.771a1.265,1.265,0,0,0,.168-.985,6.086,6.086,0,0,1-1.8,1.392" fill="#282827"/>
                <path id="Path_814" data-name="Path 814" d="M36.237,143.789l-3.5-1.709a12.509,12.509,0,0,0,.284,1.376l3.208,1.428c-.006-.113.009-.8.012-1.1" fill="#282827"/>
                <path id="Path_815" data-name="Path 815" d="M39.34,82.385l3.225,53.1c.258,1.813,1.31,2.4.806,3.04-1.885,2.376-10.266,4.78-11.508.962L27.269,85.243Z" fill="#141413"/>
                <path id="Path_816" data-name="Path 816" d="M13.025,144.928s-.166,5.2-.177,5.317c-.182,2.307,2.3,8.22,5.919,8.581a22.394,22.394,0,0,0,2.428-.13s2.472-.093,2.006-4.777c-.182-1.821-1.909-9.161-1.909-9.161Z" fill="#383736"/>
                <path id="Path_817" data-name="Path 817" d="M12.679,143.633s.283,2.982.516,6.862c.142,2.311,2.721,7.2,5.908,7.392a10.157,10.157,0,0,0,1.53-.036c1.375-.075,3.252-.616,2.491-5.386-.27-1.7-1.389-8.268-1.484-8.271Z" fill="#231f20"/>
                <path id="Path_818" data-name="Path 818" d="M29.649,86.155c-.637,9.4-6.5,60.877-6.5,60.877-.1,1.321-3.915,2.842-3.915,2.842-4.667-.181-6.856-3.1-6.873-3.565l.769-58.9Z" fill="#383736"/>
                <path id="Path_819" data-name="Path 819" d="M20.838,50.1s2.421-4.274,4.637-5.129,9.342-.463,9.342-.463,3.8,8.276,3.838,8.84S36.888,68.8,36.888,68.8l-9.506-7.551Z" fill="#d7dfe2"/>
                <path id="Path_820" data-name="Path 820" d="M36.831,44.668c-1.1-1.768-3.414-1.863-4.96-1.7,1.894,1.352,4.391,5.749,4.8,12a81.38,81.38,0,0,1-.643,11.437c-.1-.177-6.32-12.386-8.764-14.611-.346-.316-3.666-6.761-3.666-6.761s-8.81,7.25-9.652,8.77l2.81,43.4c.13.984-.046,1.327.977,1.794A40.326,40.326,0,0,0,28.9,100.3c4.769-.154,12.4-3.232,12.4-3.232a.56.56,0,0,0,.335-.587l-1.765-16c.257-16.961-.5-31.721-3.041-35.816" fill="#3d4244"/>
                <path id="Path_821" data-name="Path 821" d="M37.164,98.393,36.06,79.73l.3-12.987s-.518-1.148-.721-1.51l-.053,14.394,1.033,18.96a2.934,2.934,0,0,0,.542-.194" fill="#383736"/>
                <path id="Path_822" data-name="Path 822" d="M33.695,47.863c-3.414,3.582-6.843-.731-9.195-3.367l.978-12.6,7.609,5.8Z" fill="#e8c5ac"/>
                <path id="Path_823" data-name="Path 823" d="M34.153,53.978a2.571,2.571,0,0,1-.253-1.119l.247-1.258-1.734-2.562-.9.173-.5,2.9,1.231.986a1.878,1.878,0,0,1,.631,1.136l.893,8.225,2.2,3.47a17.356,17.356,0,0,0,.757-3.457c-.116-3.279-2.568-8.5-2.568-8.5" fill="#160b01"/>
                <path id="Path_824" data-name="Path 824" d="M33.546,44.6l.545-1.422s.692.373.848.479a6,6,0,0,1,1.692,2.066c.685,1.149,2.408,4.769,2.408,4.769a1.745,1.745,0,0,1-.3,1.97L37.4,54.154l1.374,1.084c.9.606.615,1.871.345,2.757a82.5,82.5,0,0,1-3.16,7.937s.547-5.631.439-8.959A30.369,30.369,0,0,0,33.546,44.6" fill="#7a797a"/>
                <path id="Path_825" data-name="Path 825" d="M32.189,48.54c-.474.431-.064.951.226,1.314L34.231,52.1c.574.666.77-.135.74-.874l-.1-5.342c-.265-2.8-1.481-3.008-1.481-3.008a13.878,13.878,0,0,1,.048,1.539c-.032,1.151.106,2.9-1.249,4.127" fill="#fff"/>
                <path id="Path_826" data-name="Path 826" d="M24.482,41.536A12.552,12.552,0,0,0,25,44.121c1.661,3.894,6.507,4.584,6.507,4.584.568.175.56.451.528,1.4L31.689,53.6c-.036.913-.513.851-.9.5,0,0-3.836-2.935-4.923-3.932-2.557-2.348-2.9-4.108-2.207-7.311.242-1.114.822-1.315.822-1.315" fill="#fff"/>
                <path id="Path_827" data-name="Path 827" d="M23.7,42.666l-1.855,3.676a2.121,2.121,0,0,0-.222,1.425,9.179,9.179,0,0,0,.419,1.619l2.324,4.821c.4,1.147.844,1.509,1.732,1.523l3.138.187-.965,2.256c-.331.722-.064,1.11.556,1.524,6.41,4.29,7.5,7.118,7.5,7.118s.017-3.1-5.436-11.719c-1.389-2.2-3.773-5.317-5.462-7.837-2.2-3.282-1.734-4.593-1.734-4.593" fill="#7a797a"/>
                <path id="Path_828" data-name="Path 828" d="M12.129,100.559c-.073,1.324,1.669,2.293,2.875,2.354.422.025.916,3.286,2.651,3.265,0,0,.044-.865.066-2.384a3.231,3.231,0,0,0-.477-2.353c-1.96-2.522-2.175-2.991-3.381-3.06s-1.662.855-1.734,2.178" fill="#e8c5ac"/>
                <path id="Path_829" data-name="Path 829" d="M6.019,117.686a1.113,1.113,0,0,0,.254.6Z" fill="#6d320a"/>
                <path id="Path_830" data-name="Path 830" d="M5.87,115.309A26.973,26.973,0,0,1,0,103.359l.07,1.112.178.672a27.655,27.655,0,0,0,5.681,11.1Z" fill="#6d320a"/>
                <path id="Path_831" data-name="Path 831" d="M17.5,123.364a1.125,1.125,0,0,0,.253.6Z" fill="#6d320a"/>
                <path id="Path_832" data-name="Path 832" d="M25.119,132.809l5.533-3.713a.926.926,0,0,0,.33-.871l-5.533,3.713a.92.92,0,0,1-.33.871" fill="#723919"/>
                <path id="Path_833" data-name="Path 833" d="M24.428,115.429l.07,1.108-.087.545c-.53,3.044-2.227,5.036-4.653,5.685,0,0-5.171-.406-6.807-1.216a50.224,50.224,0,0,1-4.772-3.191l-2.25-2.113a27.629,27.629,0,0,1-5.68-11.1l-.178-.671.952,15.4a2.91,2.91,0,0,0,1.463,2.193L24.178,132.78c.755.373,1.323-.005,1.271-.842Z" fill="#8c532c"/>
                <path id="Path_834" data-name="Path 834" d="M24.439,115.611l5.532-3.715-.01-.181-5.533,3.713Z" fill="#5c361d"/>
                <path id="Path_835" data-name="Path 835" d="M24.439,115.611c-.411,3.364-2.167,5.56-4.744,6.246a.671.671,0,0,1,.013.1l.05.81c2.426-.648,4.123-2.64,4.653-5.684l.087-.545Z" fill="#6d320a"/>
                <path id="Path_836" data-name="Path 836" d="M0,103.358a26.968,26.968,0,0,0,5.87,11.95l-.012-.2c-.019-.334.21-.483.512-.334l1.27.627a1.159,1.159,0,0,1,.584.875l.091,1.481a21.4,21.4,0,0,0,4.537,3.006,11.731,11.731,0,0,0,4.574,1.307l-.081-1.286c-.02-.332.208-.486.508-.337l1.27.629a1.167,1.167,0,0,1,.572.777c2.577-.687,4.333-2.882,4.744-6.246l-.011-.183-7.638-3.773-1.114-.551-6.874-3.4-1.116-.554Z" fill="#a5683d"/>
                <path id="Path_837" data-name="Path 837" d="M5.533,99.644,0,103.358l24.428,12.07.07,1.109.951,15.4a.92.92,0,0,1-.33.871l5.534-3.713a.926.926,0,0,0,.33-.87l-1.022-16.511Z" fill="#6d3b18"/>
                <path id="Path_838" data-name="Path 838" d="M17.386,122.014a11.829,11.829,0,0,1-4.571-1.306A21.517,21.517,0,0,1,8.277,117.7l-.54.175.15.4a26.22,26.22,0,0,0,4.984,3.342,11.854,11.854,0,0,0,4.574,1.309Z" fill="#6d320a"/>
                <path id="Path_839" data-name="Path 839" d="M19.32,123.336l.076,1.242a.318.318,0,0,1-.118.306l.222-.148a.314.314,0,0,0,.117-.305l-.076-1.243Z" fill="#75460d"/>
                <path id="Path_840" data-name="Path 840" d="M19.32,123.336l.221-.148-1.94-.958-.221.146Z" fill="#eb921a"/>
                <path id="Path_841" data-name="Path 841" d="M17.38,122.376l.076,1.243a1.015,1.015,0,0,0,.514.771l.98.487c.265.127.464,0,.447-.3l-.077-1.242Z" fill="#d87a13"/>
                <path id="Path_842" data-name="Path 842" d="M19.274,120.988,18,120.362a.384.384,0,0,0-.379-.016l-.443.3a.366.366,0,0,1,.378.012l1.27.626a1.181,1.181,0,0,1,.582.876l.092,1.506.446-.3-.094-1.5a1.178,1.178,0,0,0-.583-.877" fill="#89550f"/>
                <path id="Path_843" data-name="Path 843" d="M17.562,120.658c-.3-.148-.531,0-.51.336l.093,1.506,2.361,1.166-.093-1.506a1.149,1.149,0,0,0-.582-.876Z" fill="#f99b1c"/>
                <path id="Path_844" data-name="Path 844" d="M7.708,117.74l.078,1.24a.329.329,0,0,1-.118.309l.221-.148a.323.323,0,0,0,.118-.3l-.076-1.245Z" fill="#75460d"/>
                <path id="Path_845" data-name="Path 845" d="M7.708,117.74l.222-.148-1.942-.957-.222.146Z" fill="#eb921a"/>
                <path id="Path_846" data-name="Path 846" d="M5.766,116.781l.077,1.244a1.015,1.015,0,0,0,.515.768l.98.486c.264.129.466,0,.449-.3l-.079-1.24Z" fill="#d87a13"/>
                <path id="Path_847" data-name="Path 847" d="M7.662,115.392l-1.269-.626a.372.372,0,0,0-.378-.015l-.443.3a.382.382,0,0,1,.377.013l1.271.626a1.111,1.111,0,0,1,.167.115.305.305,0,0,1,.029.026,1.161,1.161,0,0,1,.386.738l.094,1.5.442-.3-.093-1.505a1.18,1.18,0,0,0-.583-.876" fill="#89550f"/>
                <path id="Path_848" data-name="Path 848" d="M5.949,115.061c-.3-.149-.529,0-.508.337l.092,1.5L7.9,118.071l-.094-1.5a1.158,1.158,0,0,0-.583-.879Z" fill="#f99b1c"/>
              </g>
            </g>
            <g id="Group_1882" data-name="Group 1882">
              <g id="Group_1881" data-name="Group 1881" clip-path="url(#clip-path-33)">
                <path id="Path_849" data-name="Path 849" d="M20.646,108.673l.038.535a.334.334,0,0,0,.175-.284l-.035-.53a.32.32,0,0,1-.178.279" fill="#f99b1c"/>
              </g>
            </g>
            <g id="Group_1884" data-name="Group 1884">
              <g id="Group_1883" data-name="Group 1883" clip-path="url(#clip-path-34)">
                <path id="Path_851" data-name="Path 851" d="M16.913,109.455l.035.531a.325.325,0,0,0,.208.254l-.035-.531a.326.326,0,0,1-.208-.254" fill="#ea921a"/>
              </g>
            </g>
            <g id="Group_1886" data-name="Group 1886">
              <g id="Group_1885" data-name="Group 1885" clip-path="url(#clip-path-17)">
                <path id="Path_853" data-name="Path 853" d="M17.121,109.709l.035.531.657.327-.035-.535Z" fill="#ea921a"/>
                <path id="Path_854" data-name="Path 854" d="M18.7,109.973l.033.534,1.951-1.3-.038-.535Z" fill="#ffc585"/>
              </g>
            </g>
            <g id="Group_1888" data-name="Group 1888">
              <g id="Group_1887" data-name="Group 1887" clip-path="url(#clip-path-36)">
                <path id="Path_855" data-name="Path 855" d="M17.778,110.032l.035.535a1.023,1.023,0,0,0,.921-.06l-.034-.535a1.007,1.007,0,0,1-.922.06" fill="#f99b1c"/>
              </g>
            </g>
            <g id="Group_1890" data-name="Group 1890">
              <g id="Group_1889" data-name="Group 1889" clip-path="url(#clip-path-17)">
                <path id="Path_857" data-name="Path 857" d="M17.089,109.175a.282.282,0,0,0,.032.534l.657.323a1.007,1.007,0,0,0,.922-.059l1.946-1.3c.249-.163.236-.4-.027-.533l-.658-.329a1.025,1.025,0,0,0-.922.063Z" fill="#ffb255"/>
              </g>
            </g>
            <g id="Group_1892" data-name="Group 1892">
              <g id="Group_1891" data-name="Group 1891" clip-path="url(#clip-path-38)">
                <path id="Path_858" data-name="Path 858" d="M12.69,104.686l.037.529a.323.323,0,0,0,.174-.281l-.035-.531a.332.332,0,0,1-.176.283" fill="#f99b1c"/>
              </g>
            </g>
            <g id="Group_1894" data-name="Group 1894">
              <g id="Group_1893" data-name="Group 1893" clip-path="url(#clip-path-39)">
                <path id="Path_860" data-name="Path 860" d="M8.955,105.465l.037.531a.318.318,0,0,0,.2.252l-.035-.53a.326.326,0,0,1-.207-.253" fill="#ea921a"/>
              </g>
            </g>
            <g id="Group_1896" data-name="Group 1896">
              <g id="Group_1895" data-name="Group 1895" clip-path="url(#clip-path-17)">
                <path id="Path_862" data-name="Path 862" d="M9.162,105.718l.035.53.658.33-.036-.534Z" fill="#ea921a"/>
                <path id="Path_863" data-name="Path 863" d="M10.74,105.985l.036.532,1.951-1.3-.037-.529Z" fill="#ffc585"/>
              </g>
            </g>
            <g id="Group_1898" data-name="Group 1898">
              <g id="Group_1897" data-name="Group 1897" clip-path="url(#clip-path-41)">
                <path id="Path_864" data-name="Path 864" d="M9.819,106.044l.036.534a1.028,1.028,0,0,0,.922-.06l-.037-.533a1.01,1.01,0,0,1-.921.059" fill="#f99b1c"/>
              </g>
            </g>
            <g id="Group_1900" data-name="Group 1900">
              <g id="Group_1899" data-name="Group 1899" clip-path="url(#clip-path-17)">
                <path id="Path_866" data-name="Path 866" d="M9.131,105.183c-.247.167-.233.4.03.535l.657.326a1.012,1.012,0,0,0,.922-.058l1.95-1.3c.246-.166.232-.407-.029-.535L12,103.824a1.016,1.016,0,0,0-.921.058Z" fill="#ffb255"/>
                <path id="Path_867" data-name="Path 867" d="M12.739,103.547l-.888.594a2.019,2.019,0,0,0-.816,1.406l.885-.592a2.017,2.017,0,0,1,.819-1.408" fill="#8c532c"/>
              </g>
            </g>
            <g id="Group_1902" data-name="Group 1902">
              <g id="Group_1901" data-name="Group 1901" clip-path="url(#clip-path-43)">
                <path id="Path_868" data-name="Path 868" d="M11.035,105.547l.885-.592a2.017,2.017,0,0,1,.819-1.408l-.888.594a2.019,2.019,0,0,0-.816,1.406" fill="#8c532c"/>
              </g>
            </g>
            <g id="Group_1910" data-name="Group 1910">
              <g id="Group_1909" data-name="Group 1909" clip-path="url(#clip-path-17)">
                <path id="Path_870" data-name="Path 870" d="M11.911,102.309c2.464-1.655,7.1,2.214,8,6.6l-.885.591c-.894-4.369-5.533-8.248-8-6.591Z" fill="#8c532c"/>
                <path id="Path_871" data-name="Path 871" d="M14.208,103c-2.275-1.123-4.056-.224-4.288,1.993l1.115.55c.256-1.553,1.575-2.157,3.25-1.329a7.626,7.626,0,0,1,3.624,4.728l1.115.549A9.984,9.984,0,0,0,14.208,103" fill="#a5683d"/>
                <path id="Path_872" data-name="Path 872" d="M10.569,98.685l3.486.149,1.306.433-.25,4.431a2.441,2.441,0,0,0,.529,1.56c.239.336.66.9.66.9s.356,2.621-1.685,2.246a2.547,2.547,0,0,1-1.162-.6c-.883-.057-2.359-.319-3.342-.438C7.849,107.092,8.2,104.4,8.2,104.4l.089-2.637c.033-1.476.685-3.149,2.278-3.08" fill="#ffe1cc"/>
                <path id="Path_873" data-name="Path 873" d="M11.506,101.258a4.6,4.6,0,0,1-2.263-.375,2.288,2.288,0,0,1-1.323-1.65c-.314-3.337-.549-17.985-.25-22.142.326-4.565,3-16.4,3-16.4-.009.07,1.256-8.632,6.233-8.173,4.174.385,4.533,4.3,4.194,7.954-.264,2.876-3.915,18.442-3.915,18.442L15.954,99.305a6.113,6.113,0,0,1-4.448,1.953" fill="#585e60"/>
                <path id="Path_874" data-name="Path 874" d="M27.3,24.334v.005l-6.162,3.332,5.868,11.2c.5.718.833,1.425,1.305,2A3.781,3.781,0,0,0,30.6,42.7s1.285.041,3.053.222a12.5,12.5,0,0,0,3.757-.133c.883-.181,2.213-1.909,2.213-1.909.893-1.077.716-.97-.224-4.763,0,0-1.939-6.792-2.506-8.861-1.616-5.877-4.251-5.972-4.251-5.972Z" fill="#edc3a4"/>
                <path id="Path_875" data-name="Path 875" d="M35.594,22.86a29.61,29.61,0,0,1,1.067,3.6s-1.486-5.024-3.409-3.037c-.036.039-1.076,2.006-1.724,3.212-.365.677-1.262,1.768-1.429,1.685-.2-.1-.366-1.641-1.657-.969-1.613.838-1.663,3.341-.622,5.708.8,1.817,1.472,3.308,1.472,3.331.011.26-3.351-.888-3.53-.9-.311-.022-.316,1.347-.316,1.347.037-.029.733,3.792.366,3.495-1.507-1.2-4.065-3.466-4.464-3.835-6.5-6-5.3-17.919,11.13-16.475,1.321.116,2.218-.049,3.116,2.842" fill="#49260a"/>
                <path id="Path_876" data-name="Path 876" d="M24.09,33.7c1.461-1.385,3.149,1.17,3.149,1.17l1.722,2.96s.5,1.166-.172,1.623c-.779.533-1.667.288-2.659-.443-.058-.039-1.489-1.058-1.571-1.125-1.165-.955-1.922-2.8-.469-4.185" fill="#edc3a4"/>
                <path id="Path_877" data-name="Path 877" d="M39.6,36.843s-1.734-1.5-2.232-1.479-.546.158-1.215.621a6.227,6.227,0,0,0-1.505,1.478c-.7,1.292-.712,5.49-.712,5.49l2.195.075a32.47,32.47,0,0,1-.147-5.06c.174-.561,1.24-1.488,1.8-1.3a9.986,9.986,0,0,1,2.142,1.43Z" fill="#49260a"/>
                <path id="Path_878" data-name="Path 878" d="M27.158,39.179a23.655,23.655,0,0,0,1.519,3.233c.589.854,1.551.969,3.441,1.247a14.808,14.808,0,0,0,5.029.2c1.48-.473,3.467-2.59,3.487-3.615a14.425,14.425,0,0,0-.809-2.491s.23,1.754-.275,1.944c-.331.124-.718-.212-.718-.212s-.491-.517-.6.446a3.178,3.178,0,0,1-.284,1.318c-.994.982-2.5,1.115-4.13,1.05-1.9-.073-4.349-.719-4.774-1.172-.627-.662-1.886-1.951-1.886-1.951" fill="#49260a"/>
                <g id="Group_1905" data-name="Group 1905" opacity="0.29" style="mix-blend-mode: multiply;isolation: isolate">
                  <g id="Group_1904" data-name="Group 1904">
                    <g id="Group_1903" data-name="Group 1903" clip-path="url(#clip-path-45)">
                      <path id="Path_879" data-name="Path 879" d="M67.8,251.938s-2.126,3.984,6.376,6.907,19.927,7.441,30.289,4.253,22.849-9.564,9.3-14.083-21.786-5.845-29.757-4.782S67.8,251.938,67.8,251.938" fill="#231f20"/>
                    </g>
                  </g>
                </g>
                <path id="Path_880" data-name="Path 880" d="M71.475,150.783s-8.647,12.654-10.757,20.668a10.37,10.37,0,0,0,1.9,8.647c3.6,4.908,11.6,13.077,11.6,13.077l.211-9.912s-5.485-7.593-5.273-9.492c.333-2.988,4.64-8.857,4.64-8.857Z" fill="#282827"/>
                <path id="Path_881" data-name="Path 881" d="M104.633,249.394a4.76,4.76,0,0,0,2.66,1.757,27.586,27.586,0,0,0,5.328.392c2.016.065,4.718.049,5.276,1.97a6.2,6.2,0,0,1,.181,1.3c-.149,1.113-1.172,1.643-2.423,2.222a34.1,34.1,0,0,1-4.254,1.6,15.531,15.531,0,0,1-5.9.651,31.867,31.867,0,0,0-3.358-.105c-1.06.091-.812.848-.843,1.851l-3.288,1.186c-3.329.737-5.834-2.1-5.81-2.867l.241-7.487Z" fill="#545454"/>
                <path id="Path_882" data-name="Path 882" d="M103.3,258.916a26.178,26.178,0,0,0,6.23-.307,38.529,38.529,0,0,0,6.445-2.373c1.108-.511,2.023-1.3,2.043-1.963a2.738,2.738,0,0,1,.055.647c-.147,1.116-1.173,1.642-2.425,2.222a33.988,33.988,0,0,1-4.25,1.6,15.61,15.61,0,0,1-5.908.652l-2.853-.145c-.632-.038-1.238.184-1.239.3.018-.055.216-.652,1.9-.632" fill="#383736"/>
                <path id="Path_883" data-name="Path 883" d="M98.058,260.886l3.26-1.174c-.007.331-.018,1.11-.027,1.428L98,262.327c-3.327.733-5.833-2.1-5.808-2.868l.054-1.438c-.025.772,2.478,3.6,5.809,2.865" fill="#383736"/>
                <path id="Path_884" data-name="Path 884" d="M80.928,242.02a2.5,2.5,0,0,0,2.175,2.13c1.173.1,2.867.149,2.867.149,2.009-.373,4.521-.338,4.985,1.157a2.907,2.907,0,0,1,.181.9c-.105,1.1.285.179-1.221,1.523a36.492,36.492,0,0,1-4.625,2.988,7.512,7.512,0,0,1-4.088,1.006,9.588,9.588,0,0,0-2.335-.172c-.995.121-.739,1.379-.739,2.367l-3.065,1.265c-3.118.825-5.564-1.876-5.564-2.635v-7.882Z" fill="#545454"/>
                <path id="Path_885" data-name="Path 885" d="M79.96,251.413a17.814,17.814,0,0,0,4.434-.88,23.422,23.422,0,0,0,5.306-2.8,2.827,2.827,0,0,0,1.364-1.9,5.535,5.535,0,0,1,.071.635c.071,1-.808,1.552-1.533,2.056a19.356,19.356,0,0,1-4.312,2.454,9.912,9.912,0,0,1-3.837.747l-2.268.1c-.406.018-.969.255-.969.367.017-.056.151-.755,1.744-.788" fill="#383736"/>
                <path id="Path_886" data-name="Path 886" d="M75.063,254.456,78.1,253.2c0,.322.026.664.026.978l-3.065,1.267c-3.118.823-5.565-1.876-5.565-2.634v-.991c0,.758,2.447,3.458,5.565,2.632" fill="#383736"/>
                <path id="Path_887" data-name="Path 887" d="M78.679,123.254l6.062-2.845,6.739,15.956c2.018,4.533.513,6.162-.812,6.866a17.091,17.091,0,0,1-7.9,2.194c-3.918-.217-7.279-6.2-7.523-6.6l-6.277-9.736Z" fill="#ffe1cc"/>
                <path id="Path_888" data-name="Path 888" d="M76.46,158.086l.028-9.247,1.27-10.379,9.708,2.229L86.345,150.7c0,1.424,1.006,1.814,1.761,3.024l4.107,6.559c.987,1.584,3.046,4.1,3.046,8.527v24.356L75.39,195.924V163.591a14.712,14.712,0,0,1,1.07-5.505" fill="#ffe1cc"/>
                <path id="Path_889" data-name="Path 889" d="M88.754,187.438v4.531a86.32,86.32,0,0,1-.8,9.076l-15.483.588c-1.948-.389-2.686-3.053-2.686-5.735v-8.46Z" fill="#14546d"/>
                <path id="Path_890" data-name="Path 890" d="M82.305,119.066c3.027-.3,4.494,3.719,4.494,3.719a32.367,32.367,0,0,0-.71,4.059c.04.066,1.593,5.91,1.593,5.91.33.572,0,1.84-.873,1.207-.975-.71-.657-1.8-1.339-2.066s-2,.192-1.416,4.063l.729,2.848c.435,3.432-1.84,4.861-3.751,5.4a10.448,10.448,0,0,1-3.894.257c-.636-.184-4.61-4.23-5.926-5.361-4.89-4.2-8.751-15.4,3.993-18.91a37.414,37.414,0,0,1,7.1-1.126" fill="#49260a"/>
                <path id="Path_891" data-name="Path 891" d="M86.027,191.7S83.59,216.068,82.6,224.172c-1,8.231-.159,19.621-.159,19.621a8.74,8.74,0,0,1-6.539,6.328c-3.2.737-5.695,1.046-6.959-1.266,0,0-1.389-15.666-.213-28.894.843-9.491.792-24.975.792-24.975Z" fill="#282827"/>
                <path id="Path_892" data-name="Path 892" d="M92.775,200.346s5.274,16.452,8.015,28.9c2.644,12,2.531,12.444,3.961,18.136a7.259,7.259,0,0,0,1.945,3.8c-.422,0-7.382,9.493-14.554,4.853,0,0-4-16.39-6.116-23.832-2.229-7.862-5.062-13.922-8.858-21.725a98.78,98.78,0,0,1-4.639-13.076Z" fill="#383736"/>
                <path id="Path_893" data-name="Path 893" d="M77.945,145.915c-1.163-.274-1.457-.074-1.681.635a13.486,13.486,0,0,1-.485,1.42c-.224.559.038.6.038.6a39.776,39.776,0,0,1,10.155,4.556c3.079,2.1,3.314,2.3,3.314,2.3l-.718-2.361c-.56-2.018-2.9-4.005-6.367-5.537a35.02,35.02,0,0,0-4.256-1.605" fill="#e4eff4"/>
                <path id="Path_894" data-name="Path 894" d="M85.1,131.428a2.5,2.5,0,0,0-.7,2.527,2.877,2.877,0,0,0,1.443,1.912,2.553,2.553,0,0,0,1.51.179s-1.391-2.363-1.62-2.813a17.482,17.482,0,0,1-.632-1.805" fill="#efcfbd"/>
                <path id="Path_895" data-name="Path 895" d="M85.576,130.9s.674-.437.757.842a5.717,5.717,0,0,0,.619,2.519c.28.523,1.293,1.99,1.293,1.99s-.069.884-1.034.194a7.1,7.1,0,0,1-1.69-2.212c-.248-.449-.829-3.123.055-3.333" fill="#ffe8d9"/>
                <path id="Path_896" data-name="Path 896" d="M97.72,206.431c-.055,1.369,1.761,2.346,3.01,2.4.435.018-.734,2.351,1.063,2.306,0,0,.916.476,1.527-1.011.047-.116.965-1.983.123-2.906-1.119-1.226-2.378-2.778-3.268-3.144-1.156-.474-2.4.99-2.455,2.36" fill="#d8bbab"/>
                <path id="Path_897" data-name="Path 897" d="M87.163,207.237s-1.788,2.009-6.493.351-9.558-5.735-9.558-5.735l.6-2.832s12.173,5.526,14.413,4.766,1.041,3.45,1.041,3.45" fill="#282827"/>
                <path id="Path_898" data-name="Path 898" d="M92.842,158.4c2.689,2.091,3.5,4.01,3.5,10.948l-.66,31.6c0,1.205.069,4.422-6.123,5.377-1.941.3-4.727,1.162-9.109-.3-1.792-.6-11.2-4.931-11.2-7.47L68.946,164c.14-4.086.392-9.118,1.046-11.278,1.494-4.928,5.825-4.33,5.825-4.33s7.268,2.445,11.125,5.376c1.868,1.417,2.087,1.577,5.9,4.63" fill="#383736"/>
                <path id="Path_899" data-name="Path 899" d="M99.136,204.39l-2.627,2.223-1.786-.113a7.631,7.631,0,0,0,1.137,4.682c.863,1.361,1.03,1.734,1.352,2.328.406.749.669,1.223.669,1.223s.157.5,1.03.143a12.269,12.269,0,0,0,2.658-2.082,6.317,6.317,0,0,0,1.172-.39c1.574-.981.542-3.424.542-3.424l-1.97-4.14c-.2-.529-.565-.81-2.177-.45" fill="#ffe8d9"/>
                <path id="Path_900" data-name="Path 900" d="M98.263,208.5a4.827,4.827,0,0,1-2.352.28,2.342,2.342,0,0,1-1.781-1.225c-1.25-3.164-5.6-17.361-6.471-21.5-.961-4.539-1.629-16.83-1.629-16.83s-1.212-8.761,3.9-9.747c4.255-.82,5.713,2.891,6.4,6.549.545,2.874,1.294,19.081,1.294,19.081l4.509,20.21a6.378,6.378,0,0,1-3.872,3.179" fill="#424241"/>
                <g id="Group_1908" data-name="Group 1908" opacity="0.29" style="mix-blend-mode: multiply;isolation: isolate">
                  <g id="Group_1907" data-name="Group 1907">
                    <g id="Group_1906" data-name="Group 1906" clip-path="url(#clip-path-46)">
                      <path id="Path_901" data-name="Path 901" d="M251.239,115.451s21.256.74,20.331,6.654-4.251,14.6-11.829,11.83-21.441-9.426-28.465-11.274-19.962-14.232,19.963-7.21" fill="#231f20"/>
                    </g>
                  </g>
                </g>
                <path id="Path_902" data-name="Path 902" d="M243.089,65.46C242.78,66.637,241,67,239.917,66.72c-.372-.088-1.169,2.062-1.937,2.748a1,1,0,0,1-1.637-.33,39.25,39.25,0,0,1,2.19-3.975c1.436-2.564,2.568-2.374,3.632-2.094s1.224,1.2.924,2.391" fill="#e8c7b1"/>
                <path id="Path_903" data-name="Path 903" d="M244.947,63.822l-3.1-.834-2.112,3.368-.15.6-.773,4.932a2.491,2.491,0,0,0,1.914,3c1.6.436.17.054.17.054,2.208.591,3.013-1.734,3.013-1.734l2.175-6.057c.38-1.308.276-2.95-1.141-3.332" fill="#e8c7b1"/>
                <path id="Path_904" data-name="Path 904" d="M243.884,65.074c1.236.168,3.244-2.135,3.244-2.135s.118-.29.313-.8c1.113-2.876,5.133-12.719,6.018-16.443.978-4.1,2.225-11.542,2.225-11.542s.41-8.728-3.755-10.72c-2.384-1.144-5.721.62-6.415,7.491-.266,2.649-.879,13.734-.879,13.734l-4.444,17.681s.162,2.252,3.693,2.73" fill="#2c3133"/>
                <path id="Path_905" data-name="Path 905" d="M266.942,116.142s-.039,5.686-.035,5.808c.036,2.234-1.066,6.75-6.237,6.75h-2.115s-3.544-.393-2.681-5.38c.3-1.742,1.337-7.658,1.337-7.658Z" fill="#383736"/>
                <path id="Path_906" data-name="Path 906" d="M266.942,114.892s.113-.136-.035,6.24c-.055,2.235-1.1,5.954-6.168,5.954-2.051,0-2.568.049-2.627.043-1.5-.043-2.587-1.565-2.143-4.758.189-1.383,1.543-7.46,1.643-7.46Z" fill="#231f20"/>
                <path id="Path_907" data-name="Path 907" d="M236.827,109.957l-1.968,1.413s-7.895,2.783-8.443,2.989c-.617.233-1.972.625-1.923,1.723a1.257,1.257,0,0,0,.127.675,4.481,4.481,0,0,0,2.776,1.665c2.394.643,7.569.382,7.569.382a17.377,17.377,0,0,0,4.35-.725s1.318-.251,1.5.214a3.785,3.785,0,0,1-.164,1.03l3.3-.979a7.794,7.794,0,0,0,.748-2.227l.376-4.456Z" fill="#231f20"/>
                <path id="Path_908" data-name="Path 908" d="M226.1,117.519a7.883,7.883,0,0,0,2.369.783c3.5.73,8.974.041,8.974.041.542-.079,2.61-.373,2.61-.373s.817.141.77.322c.009-.09-.007-.006.03.01a4.436,4.436,0,0,1-.194,1.021l-.8-.615s-2.514.308-2.956.406a34.81,34.81,0,0,1-8.8-.039c-1.113-.215-2.961-1.048-3.534-2.134a1.146,1.146,0,0,1-.031-.955,5.6,5.6,0,0,0,1.565,1.533" fill="#383736"/>
                <path id="Path_909" data-name="Path 909" d="M240.817,118.293l3.631-1.213a12.026,12.026,0,0,1-.458,1.279l-3.314.979c.028-.109.1-.763.141-1.045" fill="#383736"/>
                <path id="Path_910" data-name="Path 910" d="M245.814,63.807S238.8,84.4,237.707,90.967c-.642,3.853-2.778,18.747-2.778,18.747-.407,1.873-.716,2.233-.214,2.925,1.848,2.575,8.427,6.724,10.054,2.818,0,0,2.131-17.417,3.844-21.71C251.319,86.98,259.1,66.286,259.1,66.286Z" fill="#141413"/>
                <path id="Path_911" data-name="Path 911" d="M253.535,67.137l2.64,46.6.125,4.049c.019,1.372,1.826,2.847,4.113,3.253a7.673,7.673,0,0,0,4.368-.27,4.34,4.34,0,0,0,2.76-3.057l.493-20.7.4-29.215Z" fill="#383736"/>
                <path id="Path_912" data-name="Path 912" d="M245.692,64.026c-.829-1.307,1.3-24.6,3.643-35.906.78-3.764,4.027-5.121,4.725-5.67a9.8,9.8,0,0,1,1.438.221l5.295,1.579a49.3,49.3,0,0,1,4.262,3.023c-.84-.008-5.871,35.855-8.824,38.45-2.741,2.413-9.008.721-10.539-1.7" fill="#e3e6e8"/>
                <path id="Path_913" data-name="Path 913" d="M252.7,27.991c2.17,3.847,8.114-.482,8.044-3.44l.4-9.1-7.51,2.162Z" fill="#e8c5ac"/>
                <path id="Path_914" data-name="Path 914" d="M258.839,10.261a2.035,2.035,0,0,0-2.134,1.694l-.138,3.725a1.093,1.093,0,0,0,.747.977c1.04.265,1.533-.643,2.047-1.635.025-.061.688-1.531.723-1.62.569-1.25.5-3.077-1.245-3.141" fill="#ffe8d9"/>
                <path id="Path_915" data-name="Path 915" d="M252.38,46.035s3.506-6.535,5.113-9.314a44.671,44.671,0,0,0,4.7-11.458c2.082,1.336,10.248,5.9,10.055,8.244l-2.569,40.527c-.063.533-.126,1.723-2.12,2.594a42.706,42.706,0,0,1-7.394,1.785c-1.839.147-4.86.249-7.376-1.207Z" fill="#3d4244"/>
                <path id="Path_916" data-name="Path 916" d="M242.844,69.818l2.837-30.527c.314-7.955,1.509-11.237,3.777-15.132.85-1.437,2.311-1.357,3.7-1.344-1.179,1.595-2.513,3.62-3.151,8.765a102.345,102.345,0,0,0-.209,13.491L247.334,75.5c-2.252-.324-3.867-2.693-3.867-2.693-.893-.629-.669-1.91-.623-2.986" fill="#3d4244"/>
                <path id="Path_917" data-name="Path 917" d="M267.064,65.571l.1-1.247-2.885-3.833-4.174.927s-3.861.821-4.575,3.19c-1.3,4.342,1.987,4.246,1.987,4.246a14.3,14.3,0,0,1,2.856-.993c.344,0,3.377-.331,3.377-.331,1.852-.2,2.864-.562,3.311-1.959" fill="#e8c7b1"/>
                <path id="Path_918" data-name="Path 918" d="M264.527,64.485a5.1,5.1,0,0,0,3.129,1.929s6.419-4.855,10.662-8.088,4.526-5.738,2.369-9.841L274,36.262s-2.133-5.416-5.5-5.245c-3.846.187-5.986,5.547-4.076,9.082,1.064,1.951,5.625,7.82,7.74,10.5.713.894.59,1.655.133,1.99l-8.341,7.965s-1.061,1.485.566,3.927" fill="#585e60"/>
                <path id="Path_919" data-name="Path 919" d="M252.387,46.109l-.007-.074s3.506-6.535,5.113-9.315a35.6,35.6,0,0,0,4.228-12.456c.4.251,1.485,1.643,2.188,2.123v8.084s.216.856-.533.856a17.225,17.225,0,0,0-2.566.43L262.2,38.33s.537.533-2.456,2.781c-2.242,1.681-5.735,3.96-7.354,5" fill="#7a797a"/>
                <path id="Path_920" data-name="Path 920" d="M247.27,39.558c-1.2-2.971-.618-3.3-.618-3.3l1.974-1.944A9.9,9.9,0,0,0,247,33.154c-.517-.232-.032-.956-.032-.956l3.705-8.661.631-.875a1.863,1.863,0,0,1,2.065.062c-1.179,1.594-2.729,3.712-3.367,8.856a101.365,101.365,0,0,0-.222,13.457c-.778-1.6-1.827-3.809-2.513-5.479" fill="#7a797a"/>
                <path id="Path_921" data-name="Path 921" d="M264.111,5.855l-.006.008,5.632,4.409-7.842,10.28c-.623.639-1.089,1.287-1.656,1.8a3.642,3.642,0,0,1-2.654.911,18.575,18.575,0,0,1-4.09-.547,16.019,16.019,0,0,1-2.384-.949c-2.7-1.335-1.726-4.068-1.207-5.619a23.16,23.16,0,0,1,1.395-3.391l3.909-6.671L259.064.334Z" fill="#f2d3bd"/>
                <path id="Path_922" data-name="Path 922" d="M261.1.085c-2.28-.343-3.961.271-5.085,3.343-.916,2.49-.982,3.051-1.044,3.062-.04,0,.983-1.4,1.572-2.228.88-1.25,1.8.107,2,.888.286,1.139,1.188,3.553,1.208,3.621.355.88.709.7,1.122.267.085-.1.576-.724.576-.724.035.128.992,2,1.209,2.555a3.217,3.217,0,0,1-.7,3.569l-.68.892c-.363.459-.857.93-.36,1.229a1.553,1.553,0,0,0,1.738-.174,1.637,1.637,0,0,1,2.293.66c.589,1.261-1.684,2.227-1.854,2.3l-2.95,3.082c.317.447,1.783.467,3.212-.271,2.636-1.372,4.438-2.428,5.222-2.864,7.631-4.322,7.179-14.732-1.554-18.076A38.41,38.41,0,0,0,261.1.085" fill="#a58705"/>
                <path id="Path_923" data-name="Path 923" d="M264.939,16.376a2.025,2.025,0,0,0-2.714.144l-2.284,2.943a1.1,1.1,0,0,0,.037,1.231c.694.819,1.622.37,2.622-.141.063-.031,1.443-.846,1.529-.887,1.189-.695,2.2-2.215.81-3.29" fill="#f2d3bd"/>
                <path id="Path_924" data-name="Path 924" d="M251.8,33.331a2.349,2.349,0,0,0,.288-1l-.16-1.152,1.7-2.231.807.2.308,2.652-1.166.83a1.711,1.711,0,0,0-.63,1l-1.084,21.531L250.2,59.229a36.152,36.152,0,0,1-1.293-4.9c.185-9.057,2.891-21,2.891-21" fill="#160b01"/>
                <path id="Path_925" data-name="Path 925" d="M253.855,28.509c.406.414.009.862-.272,1.177l-1.759,1.939c-.555.573-.692-.164-.625-.832l.362-4.829c.385-2.519,1.625-2.993,1.625-2.993a15.146,15.146,0,0,0-.215,1.818c-.03,1.044-.281,2.536.884,3.72" fill="#fff"/>
                <path id="Path_926" data-name="Path 926" d="M260.857,22.908a4.9,4.9,0,0,1-.269,1.967c-1.7,3.443-6.124,3.816-6.124,3.816-.526.132-.533.38-.551,1.245l.134,3.178c-.014.829.421.8.788.494,0,0,3.626-2.461,4.659-3.307,2.435-1.994,2.632-3.378,2.165-6.314-.16-1.02-.8-1.079-.8-1.079" fill="#fff"/>
              </g>
            </g>
          </g>
        </g>
        <g id="Group_1919" data-name="Group 1919" transform="translate(292 631.902)">
          <g id="Group_1918" data-name="Group 1918" clip-path="url(#clip-path-47)">
            <g id="Group_1917" data-name="Group 1917">
              <g id="Group_1916" data-name="Group 1916" clip-path="url(#clip-path-48)">
                <g id="Group_1915" data-name="Group 1915" opacity="0.05" style="mix-blend-mode: multiply;isolation: isolate">
                  <g id="Group_1914" data-name="Group 1914">
                    <g id="Group_1913" data-name="Group 1913" clip-path="url(#clip-path-49)">
                      <path id="Path_927" data-name="Path 927" d="M50.792,10.55c0,5.826-11.37,10.548-25.4,10.548S0,16.376,0,10.55,11.37,0,25.4,0s25.4,4.723,25.4,10.55" fill="#231f20"/>
                    </g>
                  </g>
                </g>
              </g>
            </g>
          </g>
        </g>
      </g>
      <g id="Group_1921" data-name="Group 1921">
        <path id="Path_657" data-name="Path 657" d="M161.385,127.945S172.546-31.875,107.993,23.551s-120.921-8.6-120.921-8.6" transform="matrix(0.799, 0.602, -0.602, 0.799, 278.547, 379.78)" fill="none" stroke="#fff" stroke-linecap="round" stroke-width="2" stroke-dasharray="6"/>
        <g id="Group_1920" data-name="Group 1920" transform="translate(255.772 368.587) rotate(33)">
          <g id="Group_1772" data-name="Group 1772" transform="translate(8.992 -18.33) rotate(69)" clip-path="url(#clip-path-50)">
            <g id="Group_1764" data-name="Group 1764" transform="translate(0 0)">
              <g id="Group_1763" data-name="Group 1763" clip-path="url(#clip-path-50)">
                <g id="Group_1762" data-name="Group 1762" transform="translate(2.249 0.611)" opacity="0.2" style="mix-blend-mode: multiply;isolation: isolate">
                  <g id="Group_1761" data-name="Group 1761">
                    <g id="Group_1760" data-name="Group 1760" clip-path="url(#clip-path-52)">
                      <g id="Group_1759" data-name="Group 1759" transform="translate(0 0)">
                        <g id="Group_1758" data-name="Group 1758" transform="translate(0 0)" clip-path="url(#clip-path-53)">
                          <rect id="Rectangle_966" data-name="Rectangle 966" width="33.346" height="26.601" transform="translate(0 0)" fill="url(#linear-gradient)"/>
                        </g>
                      </g>
                    </g>
                  </g>
                </g>
              </g>
            </g>
            <path id="Path_590" data-name="Path 590" d="M20.656,0,0,26.6l33.346-4.726-9.792-8.937Z" transform="translate(0 0)" fill="#137bdb"/>
            <g id="Group_1771" data-name="Group 1771" transform="translate(0 0)">
              <g id="Group_1770" data-name="Group 1770" clip-path="url(#clip-path-50)">
                <g id="Group_1769" data-name="Group 1769" transform="translate(0 12.937)" opacity="0.2" style="mix-blend-mode: multiply;isolation: isolate">
                  <g id="Group_1768" data-name="Group 1768">
                    <g id="Group_1767" data-name="Group 1767" clip-path="url(#clip-path-55)">
                      <g id="Group_1766" data-name="Group 1766" transform="translate(0 0)">
                        <g id="Group_1765" data-name="Group 1765" transform="translate(0 0)" clip-path="url(#clip-path-56)">
                          <rect id="Rectangle_969" data-name="Rectangle 969" width="35.068" height="30.518" transform="translate(-6.466 4.628) rotate(-35.591)" fill="url(#linear-gradient-2)"/>
                        </g>
                      </g>
                    </g>
                  </g>
                </g>
              </g>
            </g>
          </g>
        </g>
        <path id="Icon_awesome-rupee-sign" data-name="Icon awesome-rupee-sign" d="M11.816,4.705a.46.46,0,0,0,.46-.46V2.71a.46.46,0,0,0-.46-.46H.46A.46.46,0,0,0,0,2.71V4.427a.46.46,0,0,0,.46.46H3.732A2.768,2.768,0,0,1,6.071,5.933H.46a.46.46,0,0,0-.46.46V7.928a.46.46,0,0,0,.46.46H6.551a2.651,2.651,0,0,1-2.868,2.249H.46A.46.46,0,0,0,0,11.1v2.034a.46.46,0,0,0,.148.338L6.48,19.316a.46.46,0,0,0,.312.122H9.96a.46.46,0,0,0,.312-.8L4.484,13.3A5.256,5.256,0,0,0,9.79,8.388h2.026a.46.46,0,0,0,.46-.46V6.393a.46.46,0,0,0-.46-.46H9.565a5.255,5.255,0,0,0-.547-1.228Z" transform="translate(244.897 321.906)" fill="#fff"/>
        <path id="Icon_awesome-business-time" data-name="Icon awesome-business-time" d="M13.042,5.89a3.786,3.786,0,1,0,3.786,3.786A3.784,3.784,0,0,0,13.042,5.89Zm1.683,3.952a.256.256,0,0,1-.255.255H12.877a.256.256,0,0,1-.255-.255V7.828a.256.256,0,0,1,.255-.255h.331a.256.256,0,0,1,.255.255V9.256H14.47a.256.256,0,0,1,.255.255ZM13.042,5.049c.142,0,.282.009.421.021V3.786A1.294,1.294,0,0,0,12.2,2.524H10.1V1.262A1.294,1.294,0,0,0,8.835,0H4.628A1.294,1.294,0,0,0,3.366,1.262V2.524h-2.1A1.294,1.294,0,0,0,0,3.786v2.1H10.39A4.6,4.6,0,0,1,13.042,5.049ZM8.414,2.524H5.049V1.683H8.414Zm.179,5.89H5.469a.421.421,0,0,1-.421-.421V6.731H0v3.786A1.294,1.294,0,0,0,1.262,11.78H8.925a4.566,4.566,0,0,1-.332-3.366Z" transform="translate(229.177 299.289)" fill="#fff"/>
        <path id="Icon_awesome-hand-peace" data-name="Icon awesome-hand-peace" d="M14.991,7.937a1.47,1.47,0,0,0-1.47,1.47h-.294V8.23a1.47,1.47,0,1,0-2.939,0V9.406H9.994V1.764a1.764,1.764,0,1,0-3.527,0V9.406h-.5L3.406,2.882A1.764,1.764,0,1,0,.123,4.172L2.87,11.166l-1.142.914a1.47,1.47,0,0,0-.358,1.877l2.352,4.115A1.47,1.47,0,0,0,5,18.813h8.818a1.47,1.47,0,0,0,1.431-1.133l1.176-5a1.469,1.469,0,0,0,.039-.337V9.406A1.47,1.47,0,0,0,14.991,7.937Z" transform="translate(206.177 313.938)" fill="#fff"/>
        <path id="Icon_awesome-user-friends" data-name="Icon awesome-user-friends" d="M5.038,8.128A2.939,2.939,0,1,0,2.1,5.189,2.937,2.937,0,0,0,5.038,8.128Zm2.015.84H6.836a4.058,4.058,0,0,1-3.595,0H3.023A3.024,3.024,0,0,0,0,11.99v.756a1.26,1.26,0,0,0,1.26,1.26H8.817a1.26,1.26,0,0,0,1.26-1.26V11.99A3.024,3.024,0,0,0,7.053,8.968Zm5.542-.84a2.519,2.519,0,1,0-2.519-2.519A2.52,2.52,0,0,0,12.6,8.128Zm1.26.84h-.1a3.309,3.309,0,0,1-2.32,0h-.1a2.914,2.914,0,0,0-1.462.4,3.84,3.84,0,0,1,1.042,2.619V13c0,.058-.013.113-.016.168h4.634a1.26,1.26,0,0,0,1.26-1.26,2.937,2.937,0,0,0-2.939-2.939Z" transform="translate(220.78 341.219)" fill="#fff"/>
      </g>
    </g>
  </g>
</svg>
